<svg version="1.1" xmlns="http://www.w3.org/2000/svg" xmlns:xlink="http://www.w3.org/1999/xlink" width="800" height="800" viewBox="0,0,800,800"><g fill="none" fill-rule="nonzero" stroke="none" stroke-width="none" stroke-linecap="none" stroke-linejoin="none" stroke-miterlimit="10" stroke-dasharray="" stroke-dashoffset="0" font-family="none" font-weight="none" font-size="none" text-anchor="none" style="mix-blend-mode: normal"><rect x="0" y="0" width="800" height="800" fill="#e8caa4" stroke="none" stroke-width="1" stroke-linecap="butt" stroke-linejoin="miter"></rect><g fill="none" stroke-linecap="square" stroke-linejoin="round"><line x1="400" y1="400" x2="425.68" y2="400" stroke="#161eeb" stroke-width="1"></line><line x1="411" y1="400" x2="455.49" y2="385.86" stroke="#70784b" stroke-width="1"></line><line x1="430.06" y1="393.94" x2="475.51" y2="383.27" stroke="#e1b82a" stroke-width="1"></line><line x1="449.53" y1="389.37" x2="495.28" y2="398.66" stroke="#3e7f0e" stroke-width="1"></line><line x1="469.13" y1="393.35" x2="494.83" y2="428.57" stroke="#d03cd8" stroke-width="1"></line><line x1="480.14" y1="408.44" x2="488.52" y2="454.37" stroke="#d570e2" stroke-width="2"></line><line x1="483.73" y1="428.12" x2="514.43" y2="463.29" stroke="#431fa5" stroke-width="2"></line><line x1="496.88" y1="443.18" x2="527.37" y2="459.52" stroke="#69fcf7" stroke-width="2"></line><line x1="509.94" y1="450.18" x2="543.9" y2="448.72" stroke="#ffc6d2" stroke-width="2"></line><line x1="524.49" y1="449.55" x2="570.41" y2="441.14" stroke="#78c84b" stroke-width="2"></line><line x1="544.16" y1="445.95" x2="590.83" y2="444.53" stroke="#e706f0" stroke-width="2"></line><line x1="564.15" y1="445.34" x2="610.15" y2="453.32" stroke="#ce97b9" stroke-width="2"></line><line x1="583.86" y1="448.76" x2="625.13" y2="470.59" stroke="#658187" stroke-width="2"></line><line x1="601.54" y1="458.11" x2="626.61" y2="497.5" stroke="#52badd" stroke-width="3"></line><line x1="612.28" y1="474.99" x2="621.95" y2="520.66" stroke="#bf976b" stroke-width="3"></line><line x1="616.42" y1="494.55" x2="617.78" y2="541.22" stroke="#d94a99" stroke-width="3"></line><line x1="617" y1="514.54" x2="604.56" y2="559.54" stroke="#ea6fe5" stroke-width="3"></line><line x1="611.67" y1="533.82" x2="591.57" y2="575.96" stroke="#3f831f" stroke-width="3"></line><line x1="603.06" y1="551.87" x2="580.05" y2="592.49" stroke="#c3bcef" stroke-width="3"></line><line x1="593.2" y1="569.27" x2="580.62" y2="614.23" stroke="#759aea" stroke-width="3"></line><line x1="587.82" y1="588.53" x2="593.77" y2="629.34" stroke="#e746a8" stroke-width="3"></line><line x1="590.36" y1="606.01" x2="606.44" y2="634.41" stroke="#29c4cf" stroke-width="3"></line><line x1="597.25" y1="618.18" x2="627.12" y2="638.22" stroke="#dba822" stroke-width="4"></line><line x1="610.05" y1="626.77" x2="650.8" y2="649.53" stroke="#b968a5" stroke-width="4"></line><line x1="627.51" y1="636.52" x2="671.82" y2="651.22" stroke="#27c74a" stroke-width="4"></line><line x1="646.49" y1="642.82" x2="692.12" y2="632.97" stroke="#88439c" stroke-width="4"></line><line x1="666.04" y1="638.6" x2="687.77" y2="615.49" stroke="#376dcf" stroke-width="4"></line><line x1="675.35" y1="628.7" x2="683.79" y2="582.78" stroke="#1b48d7" stroke-width="4"></line><line x1="678.96" y1="609.03" x2="700.01" y2="567.35" stroke="#107417" stroke-width="4"></line><line x1="687.98" y1="591.17" x2="726.52" y2="564.83" stroke="#000000" stroke-width="4"></line><line x1="704.49" y1="579.89" x2="740.59" y2="550.29" stroke="#fa486a" stroke-width="5"></line><line x1="719.96" y1="567.21" x2="737.68" y2="538.42" stroke="#efd186" stroke-width="5"></line><line x1="727.55" y1="554.87" x2="726.5" y2="535.82" stroke="#b26bf8" stroke-width="5"></line><line x1="727.1" y1="546.71" x2="703.37" y2="533.61" stroke="#7ef352" stroke-width="5"></line><line x1="716.93" y1="541.1" x2="678.23" y2="543.48" stroke="#662ae7" stroke-width="5"></line><line x1="700.35" y1="542.12" x2="656.17" y2="557.21" stroke="#9115cd" stroke-width="5"></line><line x1="681.43" y1="548.58" x2="634.77" y2="550.18" stroke="#6e31f4" stroke-width="5"></line><line x1="661.44" y1="549.27" x2="641.37" y2="532.58" stroke="#e2e248" stroke-width="5"></line><line x1="652.84" y1="542.12" x2="659.52" y2="547" stroke="#6c09c0" stroke-width="6"></line><line x1="655.7" y1="544.21" x2="694.89" y2="557.53" stroke="#cd47e7" stroke-width="6"></line><line x1="672.49" y1="549.92" x2="710.12" y2="534.95" stroke="#61b311" stroke-width="6"></line><line x1="688.61" y1="543.5" x2="704.37" y2="522.59" stroke="#ba8ae7" stroke-width="6"></line><line x1="695.36" y1="534.55" x2="690.11" y2="510.33" stroke="#a53184" stroke-width="6"></line><line x1="693.11" y1="524.17" x2="674.48" y2="483.14" stroke="#2c971b" stroke-width="6"></line><line x1="685.13" y1="506.59" x2="681.22" y2="460.07" stroke="#000000" stroke-width="6"></line><line x1="683.45" y1="486.66" x2="695.04" y2="464.97" stroke="#2ad7e1" stroke-width="6"></line><line x1="688.42" y1="477.37" x2="675.1" y2="477.71" stroke="#8c154b" stroke-width="6"></line><line x1="682.71" y1="477.52" x2="657.37" y2="508.12" stroke="#96ec4a" stroke-width="7"></line><line x1="671.86" y1="490.63" x2="673.09" y2="515.2" stroke="#52bd4d" stroke-width="7"></line><line x1="672.39" y1="501.16" x2="687.42" y2="503.97" stroke="#f3ddc4" stroke-width="7"></line><line x1="678.82" y1="502.36" x2="707.09" y2="483.26" stroke="#50971a" stroke-width="7"></line><line x1="690.93" y1="494.18" x2="736.69" y2="484.95" stroke="#000000" stroke-width="7"></line><line x1="710.54" y1="490.22" x2="741.35" y2="504.74" stroke="#2a3ae6" stroke-width="7"></line><line x1="723.74" y1="496.44" x2="751.04" y2="534.31" stroke="#e667af" stroke-width="7"></line><line x1="735.43" y1="512.66" x2="773.27" y2="540.01" stroke="#200b45" stroke-width="7"></line><line x1="751.64" y1="524.38" x2="796.17" y2="538.41" stroke="#56aabb" stroke-width="8"></line><line x1="770.72" y1="530.39" x2="804.57" y2="562.54" stroke="#4f8af2" stroke-width="8"></line><line x1="785.22" y1="544.16" x2="797.93" y2="589.09" stroke="#9643ff" stroke-width="8"></line><line x1="790.67" y1="563.41" x2="798.46" y2="609.44" stroke="#df9ceb" stroke-width="8"></line><line x1="794" y1="583.13" x2="808.07" y2="627.64" stroke="#cfbf69" stroke-width="8"></line></g><g fill="none" stroke-linecap="square" stroke-linejoin="round"><line x1="400" y1="400" x2="425.68" y2="400" stroke="#babb2f" stroke-width="1"></line><line x1="411" y1="400" x2="455.49" y2="385.86" stroke="#4bdfde" stroke-width="1"></line><line x1="430.06" y1="393.94" x2="475.51" y2="383.27" stroke="#b47ce7" stroke-width="1"></line><line x1="449.53" y1="389.37" x2="495.28" y2="398.66" stroke="#3cd355" stroke-width="1"></line><line x1="469.13" y1="393.35" x2="494.83" y2="428.57" stroke="#ba77b5" stroke-width="1"></line><line x1="480.14" y1="408.44" x2="488.52" y2="454.37" stroke="#72e351" stroke-width="2"></line><line x1="483.73" y1="428.12" x2="514.43" y2="463.29" stroke="#ec8a6a" stroke-width="2"></line><line x1="496.88" y1="443.18" x2="527.37" y2="459.52" stroke="#000000" stroke-width="2"></line><line x1="509.94" y1="450.18" x2="543.9" y2="448.72" stroke="#b3ef35" stroke-width="2"></line><line x1="524.49" y1="449.55" x2="570.41" y2="441.14" stroke="#75d453" stroke-width="2"></line><line x1="544.16" y1="445.95" x2="590.83" y2="444.53" stroke="#71686f" stroke-width="2"></line><line x1="564.15" y1="445.34" x2="610.15" y2="453.32" stroke="#ceb7f8" stroke-width="2"></line><line x1="583.86" y1="448.76" x2="625.13" y2="470.59" stroke="#f85556" stroke-width="2"></line><line x1="601.54" y1="458.11" x2="626.61" y2="497.5" stroke="#16eba9" stroke-width="2"></line><line x1="612.28" y1="474.99" x2="621.95" y2="520.66" stroke="#2b9376" stroke-width="2"></line><line x1="616.42" y1="494.55" x2="617.78" y2="541.22" stroke="#3f34db" stroke-width="3"></line><line x1="617" y1="514.54" x2="604.56" y2="559.54" stroke="#1c4d35" stroke-width="3"></line><line x1="611.67" y1="533.82" x2="591.57" y2="575.96" stroke="#d89737" stroke-width="3"></line><line x1="603.06" y1="551.87" x2="580.05" y2="592.49" stroke="#8821f4" stroke-width="3"></line><line x1="593.2" y1="569.27" x2="580.62" y2="614.23" stroke="#2f392f" stroke-width="3"></line><line x1="587.82" y1="588.53" x2="593.77" y2="629.34" stroke="#cdf64d" stroke-width="3"></line><line x1="590.36" y1="606.01" x2="606.44" y2="634.41" stroke="#53c2ff" stroke-width="3"></line><line x1="597.25" y1="618.18" x2="627.12" y2="638.22" stroke="#6ec1f5" stroke-width="3"></line><line x1="610.05" y1="626.77" x2="650.8" y2="649.53" stroke="#be2f60" stroke-width="3"></line><line x1="627.51" y1="636.52" x2="671.82" y2="651.22" stroke="#000000" stroke-width="3"></line><line x1="646.49" y1="642.82" x2="692.12" y2="632.97" stroke="#6bf341" stroke-width="4"></line><line x1="666.04" y1="638.6" x2="687.77" y2="615.49" stroke="#97a0aa" stroke-width="4"></line><line x1="675.35" y1="628.7" x2="683.79" y2="582.78" stroke="#93126b" stroke-width="4"></line><line x1="678.96" y1="609.03" x2="700.01" y2="567.35" stroke="#d7b927" stroke-width="4"></line><line x1="687.98" y1="591.17" x2="726.52" y2="564.83" stroke="#522316" stroke-width="4"></line><line x1="704.49" y1="579.89" x2="740.59" y2="550.29" stroke="#b58e6f" stroke-width="4"></line><line x1="719.96" y1="567.21" x2="737.68" y2="538.42" stroke="#2d7212" stroke-width="4"></line><line x1="727.55" y1="554.87" x2="726.5" y2="535.82" stroke="#7cc7f5" stroke-width="4"></line><line x1="727.1" y1="546.71" x2="703.37" y2="533.61" stroke="#000000" stroke-width="4"></line><line x1="716.93" y1="541.1" x2="678.23" y2="543.48" stroke="#e7b042" stroke-width="4"></line><line x1="700.35" y1="542.12" x2="656.17" y2="557.21" stroke="#c6cf2a" stroke-width="5"></line><line x1="681.43" y1="548.58" x2="634.77" y2="550.18" stroke="#4b048f" stroke-width="5"></line><line x1="661.44" y1="549.27" x2="641.37" y2="532.58" stroke="#000000" stroke-width="5"></line><line x1="652.84" y1="542.12" x2="659.52" y2="547" stroke="#4cf1a3" stroke-width="5"></line><line x1="655.7" y1="544.21" x2="694.89" y2="557.53" stroke="#62b07d" stroke-width="5"></line><line x1="672.49" y1="549.92" x2="710.12" y2="534.95" stroke="#ffe0dc" stroke-width="5"></line><line x1="688.61" y1="543.5" x2="704.37" y2="522.59" stroke="#afa29b" stroke-width="5"></line><line x1="695.36" y1="534.55" x2="690.11" y2="510.33" stroke="#44882e" stroke-width="5"></line><line x1="693.11" y1="524.17" x2="674.48" y2="483.14" stroke="#f86956" stroke-width="5"></line><line x1="685.13" y1="506.59" x2="681.22" y2="460.07" stroke="#de2273" stroke-width="5"></line><line x1="683.45" y1="486.66" x2="695.04" y2="464.97" stroke="#6b609a" stroke-width="6"></line><line x1="688.42" y1="477.37" x2="675.1" y2="477.71" stroke="#bd225f" stroke-width="6"></line><line x1="682.71" y1="477.52" x2="657.37" y2="508.12" stroke="#1a8802" stroke-width="6"></line><line x1="671.86" y1="490.63" x2="673.09" y2="515.2" stroke="#207ac8" stroke-width="6"></line><line x1="672.39" y1="501.16" x2="687.42" y2="503.97" stroke="#221949" stroke-width="6"></line><line x1="678.82" y1="502.36" x2="707.09" y2="483.26" stroke="#297276" stroke-width="6"></line><line x1="690.93" y1="494.18" x2="736.69" y2="484.95" stroke="#31c260" stroke-width="6"></line><line x1="710.54" y1="490.22" x2="741.35" y2="504.74" stroke="#e6fb77" stroke-width="6"></line><line x1="723.74" y1="496.44" x2="751.04" y2="534.31" stroke="#1d4bbc" stroke-width="6"></line><line x1="735.43" y1="512.66" x2="773.27" y2="540.01" stroke="#93bb88" stroke-width="7"></line><line x1="751.64" y1="524.38" x2="796.17" y2="538.41" stroke="#767084" stroke-width="7"></line><line x1="770.72" y1="530.39" x2="804.57" y2="562.54" stroke="#de8528" stroke-width="7"></line><line x1="785.22" y1="544.16" x2="797.93" y2="589.09" stroke="#be2efd" stroke-width="7"></line><line x1="790.67" y1="563.41" x2="798.46" y2="609.44" stroke="#000000" stroke-width="7"></line><line x1="794" y1="583.13" x2="808.07" y2="627.64" stroke="#18cefc" stroke-width="7"></line></g><g fill="none" stroke-linecap="square" stroke-linejoin="round"><line x1="256" y1="291" x2="276.46" y2="277.84" stroke="#138808" stroke-width="1"></line><line x1="264.77" y1="285.36" x2="304.08" y2="280.4" stroke="#59ac93" stroke-width="1"></line><line x1="281.61" y1="283.24" x2="316.53" y2="293.29" stroke="#361b1e" stroke-width="1"></line><line x1="296.57" y1="287.55" x2="319.11" y2="305.49" stroke="#de0310" stroke-width="1"></line><line x1="306.23" y1="295.23" x2="319.98" y2="328.17" stroke="#889dba" stroke-width="2"></line><line x1="312.12" y1="309.34" x2="343.23" y2="344.15" stroke="#76ebef" stroke-width="2"></line><line x1="325.45" y1="324.25" x2="371.89" y2="328.98" stroke="#000000" stroke-width="2"></line><line x1="345.34" y1="326.28" x2="390.21" y2="313.39" stroke="#892a0c" stroke-width="2"></line><line x1="364.57" y1="320.76" x2="407.17" y2="301.66" stroke="#8b3454" stroke-width="2"></line><line x1="382.82" y1="312.58" x2="428.51" y2="302.98" stroke="#3a995d" stroke-width="2"></line><line x1="402.39" y1="308.47" x2="439.6" y2="330.08" stroke="#3a507b" stroke-width="3"></line><line x1="418.33" y1="317.73" x2="424.51" y2="320.88" stroke="#bbb57b" stroke-width="3"></line><line x1="420.98" y1="319.08" x2="400.14" y2="297.82" stroke="#45e04a" stroke-width="3"></line><line x1="412.05" y1="309.97" x2="365.98" y2="302.45" stroke="#52cd56" stroke-width="3"></line><line x1="392.31" y1="306.75" x2="370.28" y2="315.61" stroke="#7b190a" stroke-width="3"></line><line x1="382.87" y1="310.55" x2="386.16" y2="314.03" stroke="#9716a2" stroke-width="3"></line><line x1="384.28" y1="312.04" x2="413.13" y2="311.58" stroke="#22ee9a" stroke-width="3"></line><line x1="396.64" y1="311.84" x2="437.52" y2="334.38" stroke="#f6b5b4" stroke-width="4"></line><line x1="414.15" y1="321.5" x2="419.58" y2="342.55" stroke="#840c5d" stroke-width="4"></line><line x1="416.48" y1="330.51" x2="386.88" y2="349.75" stroke="#56bf35" stroke-width="4"></line><line x1="403.8" y1="338.76" x2="390.92" y2="381.37" stroke="#a0aeb2" stroke-width="4"></line><line x1="398.28" y1="357.01" x2="407.09" y2="388.26" stroke="#5657ce" stroke-width="4"></line><line x1="402.05" y1="370.4" x2="432.66" y2="391.2" stroke="#22748a" stroke-width="4"></line><line x1="415.17" y1="379.31" x2="459.09" y2="395.12" stroke="#feeebe" stroke-width="4"></line><line x1="433.98" y1="386.08" x2="476.22" y2="405.97" stroke="#4480f8" stroke-width="5"></line><line x1="452.08" y1="394.6" x2="491.09" y2="420.24" stroke="#526d3c" stroke-width="5"></line><line x1="468.79" y1="405.59" x2="510.17" y2="427.2" stroke="#108273" stroke-width="5"></line><line x1="486.52" y1="414.85" x2="532.98" y2="419.42" stroke="#49c582" stroke-width="5"></line><line x1="506.42" y1="416.81" x2="552.59" y2="409.84" stroke="#e784c5" stroke-width="5"></line><line x1="526.2" y1="413.82" x2="571.3" y2="401.76" stroke="#8f7677" stroke-width="5"></line><line x1="545.52" y1="408.66" x2="586.98" y2="387.2" stroke="#ee0b76" stroke-width="6"></line><line x1="563.28" y1="399.47" x2="606.12" y2="380.91" stroke="#f26e72" stroke-width="6"></line><line x1="581.64" y1="391.52" x2="628.31" y2="390.77" stroke="#db0d8f" stroke-width="6"></line><line x1="601.63" y1="391.2" x2="641.12" y2="366.29" stroke="#cb15d9" stroke-width="6"></line><line x1="618.55" y1="380.53" x2="637.28" y2="337.76" stroke="#77e1ac" stroke-width="6"></line><line x1="626.57" y1="362.21" x2="636.35" y2="316.56" stroke="#ce5635" stroke-width="6"></line><line x1="630.76" y1="342.65" x2="648.62" y2="299.52" stroke="#16447e" stroke-width="6"></line><line x1="638.41" y1="324.17" x2="672.88" y2="292.69" stroke="#3e04dc" stroke-width="7"></line><line x1="653.18" y1="310.68" x2="698.08" y2="297.91" stroke="#88521a" stroke-width="7"></line><line x1="672.42" y1="305.21" x2="718.49" y2="297.71" stroke="#469de2" stroke-width="7"></line><line x1="692.16" y1="302" x2="733.72" y2="281.36" stroke="#280b6e" stroke-width="7"></line><line x1="709.96" y1="293.16" x2="737.86" y2="284.19" stroke="#350320" stroke-width="7"></line><line x1="721.91" y1="289.32" x2="738.34" y2="297.54" stroke="#1558cc" stroke-width="7"></line><line x1="728.95" y1="292.84" x2="728.6" y2="314.48" stroke="#9e497b" stroke-width="7"></line><line x1="728.8" y1="302.11" x2="710.47" y2="334.49" stroke="#323f7b" stroke-width="8"></line><line x1="720.95" y1="315.98" x2="686.85" y2="347.87" stroke="#80a26e" stroke-width="8"></line><line x1="706.34" y1="329.64" x2="669.36" y2="346.11" stroke="#aa946f" stroke-width="8"></line><line x1="690.5" y1="336.7" x2="667.54" y2="350.91" stroke="#35b6b3" stroke-width="8"></line><line x1="680.66" y1="342.78" x2="672.56" y2="363.2" stroke="#f914ef" stroke-width="8"></line><line x1="677.19" y1="351.53" x2="687.16" y2="376.71" stroke="#df0902" stroke-width="8"></line><line x1="681.46" y1="362.32" x2="710.57" y2="392.9" stroke="#d207ce" stroke-width="9"></line><line x1="693.93" y1="375.42" x2="713.9" y2="417.62" stroke="#743997" stroke-width="9"></line><line x1="702.49" y1="393.5" x2="695.76" y2="439.69" stroke="#3258f4" stroke-width="9"></line><line x1="699.61" y1="413.29" x2="672.16" y2="451.05" stroke="#1c8913" stroke-width="9"></line><line x1="687.85" y1="429.47" x2="647.61" y2="453.13" stroke="#a7f5bd" stroke-width="9"></line><line x1="670.61" y1="439.61" x2="630.92" y2="464.19" stroke="#93377d" stroke-width="9"></line><line x1="653.61" y1="450.14" x2="628.46" y2="488.55" stroke="#e9c8fb" stroke-width="9"></line><line x1="642.84" y1="466.6" x2="611.19" y2="492.56" stroke="#9e1ebf" stroke-width="10"></line><line x1="629.28" y1="477.72" x2="591.1" y2="504.59" stroke="#fdcec4" stroke-width="10"></line><line x1="612.92" y1="489.23" x2="572.33" y2="512.28" stroke="#2d9568" stroke-width="10"></line><line x1="595.53" y1="499.11" x2="548.9" y2="501.32" stroke="#8e1a39" stroke-width="10"></line><line x1="575.55" y1="500.05" x2="548.09" y2="478.47" stroke="#7d08f3" stroke-width="10"></line><line x1="563.79" y1="490.81" x2="563.19" y2="465.42" stroke="#117ba0" stroke-width="10"></line><line x1="563.53" y1="479.93" x2="585.7" y2="458.69" stroke="#93f768" stroke-width="10"></line><line x1="573.03" y1="470.83" x2="609.99" y2="442.31" stroke="#721171" stroke-width="11"></line><line x1="588.86" y1="458.61" x2="611.86" y2="417.98" stroke="#a344c0" stroke-width="11"></line><line x1="598.71" y1="441.21" x2="596.4" y2="400.85" stroke="#37f6d0" stroke-width="11"></line><line x1="597.72" y1="423.92" x2="581.26" y2="380.23" stroke="#9e97a6" stroke-width="11"></line><line x1="590.67" y1="405.2" x2="609.99" y2="362.7" stroke="#3b76e1" stroke-width="11"></line><line x1="598.95" y1="387" x2="614.65" y2="381.42" stroke="#a06e75" stroke-width="11"></line><line x1="605.68" y1="384.61" x2="633.79" y2="413.75" stroke="#d5ef36" stroke-width="12"></line><line x1="617.72" y1="397.09" x2="662.98" y2="408.52" stroke="#9f0acc" stroke-width="12"></line><line x1="637.11" y1="401.99" x2="682.19" y2="389.85" stroke="#40df6f" stroke-width="12"></line><line x1="656.42" y1="396.79" x2="691.22" y2="369.36" stroke="#ef74f7" stroke-width="12"></line><line x1="671.33" y1="385.04" x2="695.56" y2="345.13" stroke="#a06390" stroke-width="12"></line><line x1="681.71" y1="367.94" x2="707.27" y2="328.88" stroke="#25c169" stroke-width="12"></line><line x1="692.66" y1="351.21" x2="724.14" y2="316.73" stroke="#883651" stroke-width="12"></line><line x1="706.15" y1="336.44" x2="725.31" y2="293.87" stroke="#4c073a" stroke-width="13"></line><line x1="714.36" y1="318.2" x2="715.38" y2="271.53" stroke="#c8b497" stroke-width="13"></line><line x1="714.8" y1="298.21" x2="696.9" y2="255.09" stroke="#bdff46" stroke-width="13"></line><line x1="707.13" y1="279.73" x2="681.49" y2="249.48" stroke="#44d089" stroke-width="13"></line><line x1="696.15" y1="266.77" x2="656.25" y2="243.88" stroke="#6ae0d1" stroke-width="13"></line><line x1="679.06" y1="256.97" x2="638.25" y2="234.29" stroke="#2d1838" stroke-width="13"></line><line x1="661.57" y1="247.25" x2="620.52" y2="225.02" stroke="#594117" stroke-width="13"></line><line x1="643.99" y1="237.73" x2="602.7" y2="215.93" stroke="#000000" stroke-width="14"></line><line x1="626.3" y1="228.39" x2="593.47" y2="195.2" stroke="#e419ed" stroke-width="14"></line><line x1="612.24" y1="214.17" x2="598.61" y2="172.55" stroke="#965619" stroke-width="14"></line><line x1="606.4" y1="196.34" x2="611.38" y2="157.77" stroke="#3f552f" stroke-width="14"></line><line x1="608.53" y1="179.82" x2="627.1" y2="136.99" stroke="#482584" stroke-width="14"></line><line x1="616.49" y1="161.47" x2="615.67" y2="114.79" stroke="#4d4f62" stroke-width="14"></line><line x1="616.14" y1="141.47" x2="595.25" y2="99.72" stroke="#7b4048" stroke-width="15"></line><line x1="607.19" y1="123.59" x2="601.18" y2="77.29" stroke="#992a93" stroke-width="15"></line><line x1="604.61" y1="103.75" x2="629.36" y2="64.17" stroke="#8a910f" stroke-width="15"></line><line x1="615.22" y1="86.79" x2="626.7" y2="79.04" stroke="#ef0375" stroke-width="15"></line><line x1="620.13" y1="83.47" x2="601.27" y2="88.36" stroke="#5dff9a" stroke-width="15"></line><line x1="612.05" y1="85.56" x2="586.92" y2="124.6" stroke="#2c3c0a" stroke-width="15"></line><line x1="601.29" y1="102.29" x2="613.71" y2="135.64" stroke="#f34aaa" stroke-width="15"></line><line x1="606.61" y1="116.58" x2="644.45" y2="124.93" stroke="#983e63" stroke-width="16"></line><line x1="622.82" y1="120.15" x2="662.18" y2="96.64" stroke="#88faf5" stroke-width="16"></line><line x1="639.68" y1="110.08" x2="684.89" y2="98.42" stroke="#a0b0e2" stroke-width="16"></line><line x1="659.05" y1="105.09" x2="697.6" y2="120.93" stroke="#acbddf" stroke-width="16"></line><line x1="675.57" y1="111.87" x2="718.02" y2="131.3" stroke-opacity="0.2" stroke="#cceebb" stroke-width="16"></line><line x1="693.75" y1="120.2" x2="740.41" y2="121.88" stroke="#f7767b" stroke-width="16"></line><line x1="713.74" y1="120.92" x2="760.23" y2="125.17" stroke="#23f4db" stroke-width="16"></line><line x1="733.66" y1="122.74" x2="778.78" y2="134.69" stroke="#15bd66" stroke-width="17"></line><line x1="752.99" y1="127.86" x2="797.57" y2="114" stroke="#2a99f9" stroke-width="17"></line><line x1="772.09" y1="121.92" x2="795.52" y2="81.55" stroke="#49a0ee" stroke-width="17"></line><line x1="782.13" y1="104.63" x2="794.74" y2="59.68" stroke="#c5779a" stroke-width="17"></line><line x1="787.53" y1="85.37" x2="800.5" y2="40.52" stroke="#703694" stroke-width="17"></line><line x1="793.09" y1="66.16" x2="812.51" y2="23.71" stroke="#380e38" stroke-width="17"></line></g><g fill="none" stroke-linecap="square" stroke-linejoin="round"><line x1="256" y1="291" x2="276.46" y2="277.84" stroke="#feba5e" stroke-width="1"></line><line x1="264.77" y1="285.36" x2="304.08" y2="280.4" stroke="#296cfc" stroke-width="1"></line><line x1="281.61" y1="283.24" x2="316.53" y2="293.29" stroke="#27c72c" stroke-width="1"></line><line x1="296.57" y1="287.55" x2="319.11" y2="305.49" stroke="#fb1ac5" stroke-width="1"></line><line x1="306.23" y1="295.23" x2="319.98" y2="328.17" stroke="#d94164" stroke-width="2"></line><line x1="312.12" y1="309.34" x2="343.23" y2="344.15" stroke="#1cd52f" stroke-width="2"></line><line x1="325.45" y1="324.25" x2="371.89" y2="328.98" stroke="#316954" stroke-width="2"></line><line x1="345.34" y1="326.28" x2="390.21" y2="313.39" stroke="#971ff9" stroke-width="2"></line><line x1="364.57" y1="320.76" x2="407.17" y2="301.66" stroke="#b5f4a8" stroke-width="2"></line><line x1="382.82" y1="312.58" x2="428.51" y2="302.98" stroke="#e63b55" stroke-width="2"></line><line x1="402.39" y1="308.47" x2="439.6" y2="330.08" stroke="#da48bd" stroke-width="2"></line><line x1="418.33" y1="317.73" x2="424.51" y2="320.88" stroke="#cc09b2" stroke-width="3"></line><line x1="420.98" y1="319.08" x2="400.14" y2="297.82" stroke="#36f0fd" stroke-width="3"></line><line x1="412.05" y1="309.97" x2="365.98" y2="302.45" stroke="#a48476" stroke-width="3"></line><line x1="392.31" y1="306.75" x2="370.28" y2="315.61" stroke="#6f9f48" stroke-width="3"></line><line x1="382.87" y1="310.55" x2="386.16" y2="314.03" stroke="#f349b1" stroke-width="3"></line><line x1="384.28" y1="312.04" x2="413.13" y2="311.58" stroke="#a90fde" stroke-width="3"></line><line x1="396.64" y1="311.84" x2="437.52" y2="334.38" stroke="#7d2a21" stroke-width="3"></line><line x1="414.15" y1="321.5" x2="419.58" y2="342.55" stroke="#000000" stroke-width="4"></line><line x1="416.48" y1="330.51" x2="386.88" y2="349.75" stroke="#50b0df" stroke-width="4"></line><line x1="403.8" y1="338.76" x2="390.92" y2="381.37" stroke="#c8ea63" stroke-width="4"></line><line x1="398.28" y1="357.01" x2="407.09" y2="388.26" stroke="#2fd22f" stroke-width="4"></line><line x1="402.05" y1="370.4" x2="432.66" y2="391.2" stroke="#5da82c" stroke-width="4"></line><line x1="415.17" y1="379.31" x2="459.09" y2="395.12" stroke="#3965f2" stroke-width="4"></line><line x1="433.98" y1="386.08" x2="476.22" y2="405.97" stroke="#408df8" stroke-width="4"></line><line x1="452.08" y1="394.6" x2="491.09" y2="420.24" stroke="#ea1bb5" stroke-width="5"></line><line x1="468.79" y1="405.59" x2="510.17" y2="427.2" stroke-opacity="0.07" stroke="#bb8855" stroke-width="5"></line><line x1="486.52" y1="414.85" x2="532.98" y2="419.42" stroke="#fafcfe" stroke-width="5"></line><line x1="506.42" y1="416.81" x2="552.59" y2="409.84" stroke="#8b89d6" stroke-width="5"></line><line x1="526.2" y1="413.82" x2="571.3" y2="401.76" stroke="#c01730" stroke-width="5"></line><line x1="545.52" y1="408.66" x2="586.98" y2="387.2" stroke="#a94484" stroke-width="5"></line><line x1="563.28" y1="399.47" x2="606.12" y2="380.91" stroke="#000000" stroke-width="5"></line><line x1="581.64" y1="391.52" x2="628.31" y2="390.77" stroke="#e9ef3f" stroke-width="6"></line><line x1="601.63" y1="391.2" x2="641.12" y2="366.29" stroke="#3b1537" stroke-width="6"></line><line x1="618.55" y1="380.53" x2="637.28" y2="337.76" stroke="#559653" stroke-width="6"></line><line x1="626.57" y1="362.21" x2="636.35" y2="316.56" stroke="#ab2c1d" stroke-width="6"></line><line x1="630.76" y1="342.65" x2="648.62" y2="299.52" stroke="#4531e9" stroke-width="6"></line><line x1="638.41" y1="324.17" x2="672.88" y2="292.69" stroke="#d32288" stroke-width="6"></line><line x1="653.18" y1="310.68" x2="698.08" y2="297.91" stroke="#e24544" stroke-width="6"></line><line x1="672.42" y1="305.21" x2="718.49" y2="297.71" stroke="#2e546e" stroke-width="7"></line><line x1="692.16" y1="302" x2="733.72" y2="281.36" stroke="#6596ce" stroke-width="7"></line><line x1="709.96" y1="293.16" x2="737.86" y2="284.19" stroke="#4da493" stroke-width="7"></line><line x1="721.91" y1="289.32" x2="738.34" y2="297.54" stroke="#8b801d" stroke-width="7"></line><line x1="728.95" y1="292.84" x2="728.6" y2="314.48" stroke="#7f7b56" stroke-width="7"></line><line x1="728.8" y1="302.11" x2="710.47" y2="334.49" stroke="#85c5cf" stroke-width="7"></line><line x1="720.95" y1="315.98" x2="686.85" y2="347.87" stroke="#d8f09d" stroke-width="7"></line><line x1="706.34" y1="329.64" x2="669.36" y2="346.11" stroke="#5de4c6" stroke-width="8"></line><line x1="690.5" y1="336.7" x2="667.54" y2="350.91" stroke="#f4aa06" stroke-width="8"></line><line x1="680.66" y1="342.78" x2="672.56" y2="363.2" stroke="#997a26" stroke-width="8"></line><line x1="677.19" y1="351.53" x2="687.16" y2="376.71" stroke="#a67ac3" stroke-width="8"></line><line x1="681.46" y1="362.32" x2="710.57" y2="392.9" stroke="#a3e91f" stroke-width="8"></line><line x1="693.93" y1="375.42" x2="713.9" y2="417.62" stroke="#cf5e11" stroke-width="8"></line><line x1="702.49" y1="393.5" x2="695.76" y2="439.69" stroke="#895eb0" stroke-width="8"></line><line x1="699.61" y1="413.29" x2="672.16" y2="451.05" stroke="#43cfbb" stroke-width="9"></line><line x1="687.85" y1="429.47" x2="647.61" y2="453.13" stroke="#1e8df1" stroke-width="9"></line><line x1="670.61" y1="439.61" x2="630.92" y2="464.19" stroke="#742adb" stroke-width="9"></line><line x1="653.61" y1="450.14" x2="628.46" y2="488.55" stroke="#3603c7" stroke-width="9"></line><line x1="642.84" y1="466.6" x2="611.19" y2="492.56" stroke="#dfb00e" stroke-width="9"></line><line x1="629.28" y1="477.72" x2="591.1" y2="504.59" stroke="#bde910" stroke-width="9"></line><line x1="612.92" y1="489.23" x2="572.33" y2="512.28" stroke="#57e2ff" stroke-width="9"></line><line x1="595.53" y1="499.11" x2="548.9" y2="501.32" stroke="#fb90dd" stroke-width="10"></line><line x1="575.55" y1="500.05" x2="548.09" y2="478.47" stroke="#4da9eb" stroke-width="10"></line><line x1="563.79" y1="490.81" x2="563.19" y2="465.42" stroke="#18069a" stroke-width="10"></line><line x1="563.53" y1="479.93" x2="585.7" y2="458.69" stroke-opacity="0.73" stroke="#dd88ee" stroke-width="10"></line><line x1="573.03" y1="470.83" x2="609.99" y2="442.31" stroke="#b78b00" stroke-width="10"></line><line x1="588.86" y1="458.61" x2="611.86" y2="417.98" stroke="#bc3020" stroke-width="10"></line><line x1="598.71" y1="441.21" x2="596.4" y2="400.85" stroke="#3292c1" stroke-width="10"></line><line x1="597.72" y1="423.92" x2="581.26" y2="380.23" stroke="#7a001d" stroke-width="11"></line><line x1="590.67" y1="405.2" x2="609.99" y2="362.7" stroke="#9852ed" stroke-width="11"></line><line x1="598.95" y1="387" x2="614.65" y2="381.42" stroke="#9c1132" stroke-width="11"></line><line x1="605.68" y1="384.61" x2="633.79" y2="413.75" stroke="#19820a" stroke-width="11"></line><line x1="617.72" y1="397.09" x2="662.98" y2="408.52" stroke="#c2c9f7" stroke-width="11"></line><line x1="637.11" y1="401.99" x2="682.19" y2="389.85" stroke="#fc5ada" stroke-width="11"></line><line x1="656.42" y1="396.79" x2="691.22" y2="369.36" stroke="#303996" stroke-width="11"></line><line x1="671.33" y1="385.04" x2="695.56" y2="345.13" stroke="#6ae4bf" stroke-width="12"></line><line x1="681.71" y1="367.94" x2="707.27" y2="328.88" stroke="#679521" stroke-width="12"></line><line x1="692.66" y1="351.21" x2="724.14" y2="316.73" stroke="#4c412a" stroke-width="12"></line><line x1="706.15" y1="336.44" x2="725.31" y2="293.87" stroke="#da235d" stroke-width="12"></line><line x1="714.36" y1="318.2" x2="715.38" y2="271.53" stroke="#169b0d" stroke-width="12"></line><line x1="714.8" y1="298.21" x2="696.9" y2="255.09" stroke="#3584df" stroke-width="12"></line><line x1="707.13" y1="279.73" x2="681.49" y2="249.48" stroke="#000000" stroke-width="12"></line><line x1="696.15" y1="266.77" x2="656.25" y2="243.88" stroke="#c29d0a" stroke-width="13"></line><line x1="679.06" y1="256.97" x2="638.25" y2="234.29" stroke="#8a2890" stroke-width="13"></line><line x1="661.57" y1="247.25" x2="620.52" y2="225.02" stroke="#219191" stroke-width="13"></line><line x1="643.99" y1="237.73" x2="602.7" y2="215.93" stroke="#c15c37" stroke-width="13"></line><line x1="626.3" y1="228.39" x2="593.47" y2="195.2" stroke="#afea3c" stroke-width="13"></line><line x1="612.24" y1="214.17" x2="598.61" y2="172.55" stroke="#a60c36" stroke-width="13"></line><line x1="606.4" y1="196.34" x2="611.38" y2="157.77" stroke="#e24404" stroke-width="13"></line><line x1="608.53" y1="179.82" x2="627.1" y2="136.99" stroke="#52ba0b" stroke-width="14"></line><line x1="616.49" y1="161.47" x2="615.67" y2="114.79" stroke="#802058" stroke-width="14"></line><line x1="616.14" y1="141.47" x2="595.25" y2="99.72" stroke="#c0ac6f" stroke-width="14"></line><line x1="607.19" y1="123.59" x2="601.18" y2="77.29" stroke="#184d02" stroke-width="14"></line><line x1="604.61" y1="103.75" x2="629.36" y2="64.17" stroke="#79fcc3" stroke-width="14"></line><line x1="615.22" y1="86.79" x2="626.7" y2="79.04" stroke="#dbf77d" stroke-width="14"></line><line x1="620.13" y1="83.47" x2="601.27" y2="88.36" stroke="#e5b909" stroke-width="14"></line><line x1="612.05" y1="85.56" x2="586.92" y2="124.6" stroke="#709747" stroke-width="15"></line><line x1="601.29" y1="102.29" x2="613.71" y2="135.64" stroke="#b9e4eb" stroke-width="15"></line><line x1="606.61" y1="116.58" x2="644.45" y2="124.93" stroke="#eaf754" stroke-width="15"></line><line x1="622.82" y1="120.15" x2="662.18" y2="96.64" stroke="#4dd6ae" stroke-width="15"></line><line x1="639.68" y1="110.08" x2="684.89" y2="98.42" stroke="#4faa80" stroke-width="15"></line><line x1="659.05" y1="105.09" x2="697.6" y2="120.93" stroke="#7af5fa" stroke-width="15"></line><line x1="675.57" y1="111.87" x2="718.02" y2="131.3" stroke="#d037ea" stroke-width="15"></line><line x1="693.75" y1="120.2" x2="740.41" y2="121.88" stroke="#7750b8" stroke-width="16"></line><line x1="713.74" y1="120.92" x2="760.23" y2="125.17" stroke="#558e5d" stroke-width="16"></line><line x1="733.66" y1="122.74" x2="778.78" y2="134.69" stroke="#ed668c" stroke-width="16"></line><line x1="752.99" y1="127.86" x2="797.57" y2="114" stroke="#4e2710" stroke-width="16"></line><line x1="772.09" y1="121.92" x2="795.52" y2="81.55" stroke="#f1c474" stroke-width="16"></line><line x1="782.13" y1="104.63" x2="794.74" y2="59.68" stroke="#ffc5cc" stroke-width="16"></line><line x1="787.53" y1="85.37" x2="800.5" y2="40.52" stroke="#428d93" stroke-width="16"></line><line x1="793.09" y1="66.16" x2="812.51" y2="23.71" stroke="#944560" stroke-width="17"></line></g><g fill="none" stroke-linecap="square" stroke-linejoin="round"><line x1="600" y1="166" x2="617.79" y2="152.81" stroke="#2e74eb" stroke-width="1"></line><line x1="607.62" y1="160.35" x2="635.57" y2="127.91" stroke="#802508" stroke-width="1"></line><line x1="619.59" y1="146.45" x2="635.75" y2="102.65" stroke="#5c2977" stroke-width="1"></line><line x1="626.51" y1="127.69" x2="638.3" y2="82.51" stroke="#f6f3ec" stroke-width="2"></line><line x1="631.56" y1="108.33" x2="665.9" y2="81.29" stroke="#1ded81" stroke-width="2"></line><line x1="646.27" y1="96.75" x2="654.65" y2="61.11" stroke="#d0c75f" stroke-width="2"></line><line x1="649.86" y1="81.48" x2="660.48" y2="36.02" stroke="#b6e1f5" stroke-width="2"></line><line x1="654.41" y1="62.01" x2="649.9" y2="15.54" stroke="#2552fb" stroke-width="2"></line><line x1="652.48" y1="42.1" x2="656.15" y2="7.09" stroke="#ab2e9c" stroke-width="3"></line><line x1="654.05" y1="27.1" x2="668.34" y2="-17.14" stroke="#7746e8" stroke-width="3"></line><line x1="660.17" y1="8.15" x2="687.93" y2="-29.39" stroke="#000000" stroke-width="3"></line></g><g fill="none" stroke-linecap="square" stroke-linejoin="round"><line x1="600" y1="166" x2="617.79" y2="152.81" stroke="#1cb9c2" stroke-width="1"></line><line x1="607.62" y1="160.35" x2="635.57" y2="127.91" stroke="#3c68f9" stroke-width="1"></line><line x1="619.59" y1="146.45" x2="635.75" y2="102.65" stroke="#639917" stroke-width="1"></line><line x1="626.51" y1="127.69" x2="638.3" y2="82.51" stroke="#ea3a7e" stroke-width="2"></line><line x1="631.56" y1="108.33" x2="665.9" y2="81.29" stroke="#3c5c2d" stroke-width="2"></line><line x1="646.27" y1="96.75" x2="654.65" y2="61.11" stroke="#8e27e6" stroke-width="2"></line><line x1="649.86" y1="81.48" x2="660.48" y2="36.02" stroke="#000000" stroke-width="2"></line><line x1="654.41" y1="62.01" x2="649.9" y2="15.54" stroke="#1d74b6" stroke-width="3"></line><line x1="652.48" y1="42.1" x2="656.15" y2="7.09" stroke="#88ddc1" stroke-width="3"></line><line x1="654.05" y1="27.1" x2="668.34" y2="-17.14" stroke="#704e1c" stroke-width="3"></line><line x1="660.17" y1="8.15" x2="687.93" y2="-29.39" stroke="#c3753a" stroke-width="3"></line></g><g fill="none" stroke-linecap="square" stroke-linejoin="round"><line x1="585" y1="166" x2="606.95" y2="157.04" stroke="#5e5613" stroke-width="1"></line><line x1="594.4" y1="162.16" x2="637.48" y2="152.88" stroke="#2269d5" stroke-width="1"></line><line x1="612.86" y1="158.19" x2="655.63" y2="139.49" stroke="#47fe39" stroke-width="1"></line><line x1="631.18" y1="150.18" x2="659.22" y2="118.02" stroke="#1ca780" stroke-width="2"></line><line x1="643.19" y1="136.4" x2="658.56" y2="92.31" stroke="#32172e" stroke-width="2"></line><line x1="649.78" y1="117.51" x2="682.96" y2="86.7" stroke="#fa3a43" stroke-width="2"></line><line x1="663.99" y1="104.31" x2="674.33" y2="78.69" stroke="#91662c" stroke-width="2"></line><line x1="668.42" y1="93.34" x2="657.21" y2="53.73" stroke="#8704a1" stroke-width="2"></line><line x1="663.62" y1="76.37" x2="644.71" y2="33.68" stroke="#295d86" stroke-width="2"></line><line x1="655.52" y1="58.08" x2="620.4" y2="27.32" stroke="#d89a4b" stroke-width="3"></line><line x1="640.48" y1="44.9" x2="599.39" y2="27.5" stroke="#ace2c8" stroke-width="3"></line><line x1="622.87" y1="37.45" x2="576.96" y2="29.01" stroke="#000000" stroke-width="3"></line><line x1="603.2" y1="33.83" x2="556.54" y2="35.26" stroke="#9013bd" stroke-width="3"></line><line x1="583.21" y1="34.44" x2="545.35" y2="55.05" stroke="#18ecc1" stroke-width="3"></line><line x1="566.99" y1="43.27" x2="554.02" y2="57.56" stroke="#592a46" stroke-width="3"></line><line x1="561.44" y1="49.39" x2="570.85" y2="46.26" stroke="#1cd465" stroke-width="4"></line><line x1="565.47" y1="48.05" x2="591.86" y2="24.12" stroke="#6c13d3" stroke-width="4"></line><line x1="576.78" y1="37.8" x2="620.55" y2="21.56" stroke="#1c0a74" stroke-width="4"></line></g><g fill="none" stroke-linecap="square" stroke-linejoin="round"><line x1="585" y1="166" x2="606.95" y2="157.04" stroke="#a2ae37" stroke-width="1"></line><line x1="594.4" y1="162.16" x2="637.48" y2="152.88" stroke="#7c7df5" stroke-width="1"></line><line x1="612.86" y1="158.19" x2="655.63" y2="139.49" stroke="#77c57e" stroke-width="1"></line><line x1="631.18" y1="150.18" x2="659.22" y2="118.02" stroke="#121816" stroke-width="1"></line><line x1="643.19" y1="136.4" x2="658.56" y2="92.31" stroke="#97060e" stroke-width="1"></line><line x1="649.78" y1="117.51" x2="682.96" y2="86.7" stroke="#f54738" stroke-width="1"></line><line x1="663.99" y1="104.31" x2="674.33" y2="78.69" stroke="#120d3e" stroke-width="2"></line><line x1="668.42" y1="93.34" x2="657.21" y2="53.73" stroke="#fe0d39" stroke-width="2"></line><line x1="663.62" y1="76.37" x2="644.71" y2="33.68" stroke="#edf39b" stroke-width="2"></line><line x1="655.52" y1="58.08" x2="620.4" y2="27.32" stroke="#fcb64e" stroke-width="2"></line><line x1="640.48" y1="44.9" x2="599.39" y2="27.5" stroke="#000000" stroke-width="2"></line><line x1="622.87" y1="37.45" x2="576.96" y2="29.01" stroke="#8cea14" stroke-width="2"></line><line x1="603.2" y1="33.83" x2="556.54" y2="35.26" stroke="#33947e" stroke-width="2"></line><line x1="583.21" y1="34.44" x2="545.35" y2="55.05" stroke="#c2f25d" stroke-width="2"></line><line x1="566.99" y1="43.27" x2="554.02" y2="57.56" stroke="#8a8805" stroke-width="2"></line><line x1="561.44" y1="49.39" x2="570.85" y2="46.26" stroke="#b2cbcb" stroke-width="2"></line><line x1="565.47" y1="48.05" x2="591.86" y2="24.12" stroke="#2f7d6d" stroke-width="3"></line><line x1="576.78" y1="37.8" x2="620.55" y2="21.56" stroke="#361dff" stroke-width="3"></line></g><line x1="595.53" y1="30.84" x2="629.58" y2="31.2" fill="none" stroke="#4192e6" stroke-width="4" stroke-linecap="square" stroke-linejoin="round"></line><line x1="595.53" y1="30.84" x2="629.58" y2="31.2" fill="none" stroke="#220984" stroke-width="3" stroke-linecap="square" stroke-linejoin="round"></line></g></svg>