<svg version="1.1" xmlns="http://www.w3.org/2000/svg" xmlns:xlink="http://www.w3.org/1999/xlink" width="800" height="800" viewBox="0,0,800,800"><g fill="none" fill-rule="nonzero" stroke="none" stroke-width="1" stroke-linecap="none" stroke-linejoin="miter" stroke-miterlimit="10" stroke-dasharray="" stroke-dashoffset="0" font-family="none" font-weight="none" font-size="none" text-anchor="none" style="mix-blend-mode: normal"><rect x="0" y="0" width="800" height="800" fill="#005b96" stroke="none" stroke-linecap="butt"/><g fill="none" stroke-linecap="round"><polyline points="400,400 471.03,335.86 451.03,475.2 348.05,465.36 456.44,499.57 505.07,396.82 401.61,516.34 486.44,521.73 345.37,451.87 327.26,438.74 485.8,410.45 359.92,521.21 484.9,516.51 502.09,419.28 475.78,373.26 372.37,503.15 376.31,377.58 498.61,493.95 399.78,539.29 357.13,532.85 352.97,556.52 337.46,426.53 380.37,578.52 290.71,509.21 417.13,423.27 310.52,418.44 442.44,526.39 474.72,494.89 326.42,424.59 332.32,553.89 305.21,423.1 288.12,540.41 307.31,577.92 429.4,484.84 262.63,524.4 389.1,427.73 330.7,585.18 310.71,420.9 413.79,434.76 283.46,545.66 429.43,463.79 262.85,473.34 374.57,572.82 333.73,597.94" stroke="#011f4b"/><polyline points="342.98,522.8 434.5,550.82 445.37,481.46" stroke="#5f6772"/><line x1="379.51" y1="518.79" x2="312.81" y2="587.44" stroke="#011f4b"/><line x1="365.57" y1="533.14" x2="305.1" y2="458.95" stroke="#71757a"/><line x1="352.93" y1="517.63" x2="262.51" y2="548.99" stroke="#011f4b"/><polyline points="334.04,524.19 397.62,595.72 257.17,507.02 263.97,461.73 349.73,428.47" stroke="#5f6772"/><line x1="322.26" y1="499.01" x2="379.35" y2="575.82" stroke="#011f4b"/><polyline points="334.19,515.07 419.85,557.76 281.17,588.25 255.43,487.79 287.97,617.18 217.91,540.05 387.95,559.95 364.06,466.77 407.8,576.86 277.35,611.64 338.43,650.52 267.08,647.21 366.92,508.64 386.99,498.31 407.45,489.81 449.7,542.98" stroke="#5f6772"/><line x1="374" y1="543.32" x2="404.23" y2="452.52" stroke="#72767a"/><polyline points="380.31,524.35 456.83,466.86 467.24,576.59 394.46,431.52 496.17,469.69 350.43,439.93 474.65,557.09 490.84,432.77 531.85,504.4 387.55,555.84 372.39,568.9 495.24,449.44 367.71,443.24 330.89,489.11 493.55,450.51 355.73,548.41 314.81,490.13 310.85,441.51 438.47,413.11 439.3,388.56 493.25,462.87 361.61,531.66 496.99,500.89 520.53,485.29 513.28,545.81 388.35,556.83 536.84,480.84 559.14,509.29" stroke="#011f4b"/><polyline points="483.74,502.57 569.35,545.36 568.71,443.25" stroke="#7b7c7e"/><polyline points="515.64,497.25 589.79,436.73 594.49,556.33 616.12,436.25" stroke="#6d7178"/></g><g fill="none" stroke-linecap="round"><polyline points="400,400 448.51,482.5 317.75,392.24 481.9,441.44 460.31,499.5 332.08,472.02 443.68,356.73 437.61,333.03 498.31,455.01 507.34,476.8 525.09,370.79 525.63,490.48 405.49,495.06 369.34,467.28 504.52,523.14 442.62,370.36 512.19,370.06 381.09,474.82 369.25,384.39 499.95,494.42 517.14,377.87 366.51,445.53 360.12,380.67 371.65,341.11 479.2,335.22 483.24,312.59 530.06,402.32 540.33,331.33 545.52,304.89 441.24,438.6 552.89,311.77 434.21,286.5 451.59,254.36 543.87,393.39 444.99,424.57 493.96,263.01 399.81,291.41 397.41,395.04 537.63,300.22 413.22,410.77 526.36,282.8 567.29,325.31 573.88,383.08 594.32,387.46" stroke="#03396c"/><polyline points="526.93,352.96 584.63,276.6 591.45,256.96 644.76,333.38 521.09,405.42 626.51,271.81 493.47,378.3 587.25,246.13 577.22,412.59 562.44,433.33" stroke="#9a8f84"/><polyline points="565.35,357.68 572.33,453.13 615.04,460.29 568.64,490.25 536.22,327.41 628.17,322.93 524.33,303.18 568.55,460.58 663.04,398.29 666.87,442.02 698.54,417.06 663.38,315.49 567.55,314.15 713.09,353.25 661.45,459.29 573.8,320.02 542.55,413.54 690.56,433.57 687.6,466.2 549.49,438.39 538.62,365.26 664.27,477.9 682.94,350.31 613.58,499.01 572.09,345.99 586.35,499.26 588.87,333.64 660.09,329.29 542.52,330.59 695.47,362.7 527.2,355.32 661.95,445.07 708.79,399.29 698.22,318.47 726.24,428.44 733.62,320.32 657.92,465.55 674.25,487.29 667.4,507.06 619.42,352.04 633.48,323.43 560.52,385.81 579.47,471.08 580,494.85 519.17,424.88 548.01,510.53 565.68,350.78 570.27,329.82 623.43,320.4 578.92,292.09 644.07,443.67 502.77,389.54 519.93,308.84 522.88,454.2 642.1,430.61 621.81,479.24 489.58,402.39 497.31,343.13 646.39,398.17 553.72,302.91 497.35,311.92 640.16,402.27 659.64,336.02 499.7,330.98" stroke="#868381"/><line x1="570.67" y1="357.34" x2="646.91" y2="415.2" stroke="#878481"/><polyline points="586.6,369.43 611.81,461.76 663.5,452.2 655.99,484.11 527.18,451.89 665.79,358.12 642.87,502.54 551.1,363.11 687.51,368.76 554.83,338.41 667.21,317.24 531.16,341.87 663.79,442.22 615.68,480.32 679.92,334.4 691.09,317.57 733.87,349.58 718.74,293.34 625.6,270.44 727.03,265.06" stroke="#868381"/><line x1="676.42" y1="321.36" x2="738.07" y2="248.15" stroke="#9c8f84"/><line x1="689.3" y1="306.06" x2="735" y2="221.97" stroke="#f9c593"/><polyline points="698.85,288.49 680.97,194.47 630.19,339.16" stroke="#fcc693"/><polyline points="681.55,283.54 709.51,375.07 745,226.24" stroke="#fac593"/><polyline points="699.43,286.7 694.66,382.28 788.3,339.59 622.51,327.41 638.64,391.97" stroke="#fcc693"/><line x1="685.14" y1="332.23" x2="637.19" y2="249.4" stroke="#868381"/><polyline points="675.12,314.92 623.27,234.48 686.51,205.02 602.66,209.61" stroke="#9a8f84"/></g><g fill="none" stroke-linecap="round"><polyline points="400,400 444.97,484.48 316.37,440.12 455.88,491.73 349.93,516 360.14,363.32 340.08,518.69 309.76,521.04 434.03,529.91 325.66,560.37 450.97,541.63 386.98,410.37 434.54,404.31 325.91,535.03 346.36,393.43 307.56,394.74 400.98,535.96 300.15,534.79 271.44,529.93 293.33,406.51 268.87,398.49 323.75,362.83 223.72,417.62 343,518.22 252.4,530.07 240.15,545.91" stroke="#6497b1"/><line x1="284.08" y1="484.25" x2="345.69" y2="411.01" stroke="#79858b"/><line x1="296.96" y1="468.95" x2="212.7" y2="514.35" stroke="#6497b1"/><polyline points="279.35,478.43 190.03,512.8 165.49,495.51 310.58,422.2 167.12,511.02 150.43,522.7 292.82,551.03 240.18,407.46 293.75,407.06 210.37,379.03 217.35,541.75 189.42,384.12 159.53,381.39" stroke="#79858b"/><polyline points="211.81,436.14 280.01,369 311.51,465.23 313.36,365.27 175.38,369.79 319.06,462.9 307.78,500.37" stroke="#7e8182"/><line x1="267.91" y1="436.02" x2="278.04" y2="531.18" stroke="#79858c"/><line x1="270.02" y1="455.9" x2="318.85" y2="373.59" stroke="#79858b"/><line x1="280.23" y1="438.7" x2="222.52" y2="515.06" stroke="#6497b1"/><polyline points="268.17,454.66 204.98,382.77 317.6,367.28" stroke="#79858b"/><polyline points="268.05,424.51 201.42,355.81 326.69,472.56 265.89,518.84" stroke="#7e8182"/><line x1="268.58" y1="443.19" x2="226.41" y2="357.27" stroke="#79858b"/><line x1="259.77" y1="425.23" x2="205.71" y2="504.21" stroke="#7e8182"/><line x1="248.47" y1="441.74" x2="332.93" y2="396.72" stroke="#79858b"/><line x1="266.12" y1="432.33" x2="223.81" y2="518.17" stroke="#7e8182"/><line x1="257.28" y1="450.27" x2="176.43" y2="399.06" stroke="#79858b"/><polyline points="240.39,439.57 172.19,372.42 302.68,368.08 218.56,320.77 160.38,337.07 246.97,474.37 182.36,486.37 213.34,323.59 243.15,307.32 287.43,310.13 164,428.8 295.01,318.31 230.82,461.6 329.29,368.98 194.94,307.78 175.76,298.05" stroke="#7e8182"/><line x1="228.39" y1="352.47" x2="155.09" y2="414.02" stroke="#768790"/><line x1="213.07" y1="365.34" x2="228.19" y2="270.83" stroke="#7e8182"/><polyline points="216.23,345.59 121.85,329.72 113.8,294.11 99.18,384.67" stroke="#77878f"/><polyline points="162.5,343.17 90.03,405.69 137.66,451.45 98.67,292.56 62.15,297.29 45.77,405.96 9.07,362.88" stroke="#7e8182"/><polyline points="84.69,359.34 155.48,294.92 33.42,276.63 17.82,398.89 119.23,428.46 -1.35,410.79 144.99,321.61 131.85,281.04 156.32,274.63 116.59,235.43 180.09,373.04" stroke="#9b684e"/><line x1="122.72" y1="323.65" x2="52.2" y2="258.94" stroke="#768790"/><polyline points="107.98,310.13 37.97,375.38 22.36,259.57 156.8,365.41 92.94,226.17 14.45,249.35" stroke="#9b684e"/></g><g fill="none" stroke-linecap="round"><polyline points="400,400 310.44,366.26 312.18,326.73 279.03,341.05 296.5,451.51 409.1,324.29 383.7,465.14 269.24,360.55 413.79,447.96 437.65,448.83 409.28,321.31 467.34,431.34 345.21,479.11 444.12,493.37 311.66,470.89 367.51,345.67 289.64,457.01 276.37,475.37 292.06,356.59 282.34,503.01 352.61,528.67 279.62,374.48 363.13,355.51 256.99,487.13 402.67,403.37 301.58,338.07 385.97,483.93 321.99,331.07 396,332.33 306.28,303.97 409.13,307.41 385.57,448.94 312.22,294.8 297.75,440.37 329.62,281.81 272.53,286.61 363.58,429.4 320.71,455.61 404.25,320.46 396.75,287.24 411.52,273.08 432.43,264.34 288.54,344.16 456.42,310.65 449.33,254.47 331.53,236.96 465.94,339.66 403.23,207.19 347.28,203.31" stroke="#6497b1"/><line x1="389.39" y1="266.23" x2="331.28" y2="342.27" stroke="#8d7467"/><polyline points="377.24,282.12 466.12,246.61 365.95,365.63 304.09,250.66 447.25,343.47 360.58,205.14 319.46,205.24" stroke="#6497b1"/><line x1="368.83" y1="262.63" x2="304.45" y2="191.82" stroke="#8d7467"/><line x1="355.38" y1="247.83" x2="398.54" y2="162.41" stroke="#847c78"/><line x1="364.4" y1="229.98" x2="298.45" y2="299.34" stroke="#8d7467"/><polyline points="350.62,244.48 362.34,339.46 278.52,324.35 245.87,249.2 232.68,228.4 358.7,186.24 398.72,288.09 396.66,185.77 303.83,327.24 409.56,319.81 286.49,341.85 406.08,219.13 425.39,333.64" stroke="#837c78"/><polyline points="367.37,285 421.53,363.91 407.52,392.75 452.36,388.26 313.8,290.81 305.52,266.79 296.25,379.54 426.94,269.05 302.96,243.64 326.82,392 275.72,382.16 414.25,282.18 306.31,407.17 253.14,301.16 410.45,294.13 409.21,256.88 279.93,250.61 246.89,272.94" stroke="#6497b1"/><line x1="320.07" y1="292.34" x2="226.59" y2="312.86" stroke="#837c78"/><polyline points="300.53,296.63 235.61,226.3 296.22,377.19" stroke="#837c79"/><polyline points="288.9,301.84 208.56,249.82 203.21,357.4 345.51,342.95 358.7,264.54 235.21,226.68 353.57,349.44 391.43,310.47" stroke="#77878f"/><line x1="316.19" y1="302.12" x2="396.39" y2="354.35" stroke="#837c78"/><polyline points="332.95,313.04 359.56,221.1 413.66,353.09 335.09,212.43 389.74,373.78 293.17,374.79 316.86,410.98 369.05,429.44 250.58,371.48 400.38,420.05 322.12,279.12 421.95,308.93 401.08,260.22 430.97,395.42 282.75,343.63 409.63,260.63 362.41,229.12 452.25,259.75 480.99,299.6 330.57,236.45 456.51,215.13" stroke="#6497b1"/><polyline points="403.69,269.36 338.54,199.25 351.26,167.23 425.66,151.28 338.46,138.7 293.71,160.74 429.56,125.49 446.62,114.39 478.75,203.53 317.66,201.34 303.2,139.25 446.64,111.13 304.42,205.88 465.04,155.64 310.39,218.83 282.49,206.83 365.07,87.98 425.88,97.17 292.52,204.07 364.52,256.03 446.32,214.37 443.16,255.4 458.82,135.8 339.5,258.72 304.39,161.22 449.6,250.94 362.97,113.82 320.62,114.41 293.53,114.34 281.78,222.25" stroke="#8d7467"/><line x1="339.05" y1="172.74" x2="408.59" y2="106.98" stroke="#8a766d"/><line x1="353.58" y1="159" x2="284.35" y2="225.09" stroke="#8d7467"/><line x1="339.11" y1="172.81" x2="405.1" y2="103.49" stroke="#8a766d"/><polyline points="352.9,158.32 386.25,68.61 435.96,81.52 424.91,45.32 321.01,40.06" stroke="#8d7467"/><line x1="372.45" y1="95.61" x2="449.7" y2="152.11" stroke="#9b684e"/><line x1="388.59" y1="107.41" x2="469.04" y2="55.57" stroke="#8d7467"/><line x1="405.4" y1="96.58" x2="356.3" y2="178.73" stroke="#996a52"/><polyline points="395.14,113.75 483.09,151.5 411.63,25.95 332.66,153.45 491.27,100.58 320.77,117.79 468.25,174.63 353.91,201.39 312.12,101.27 448.29,64.41 466.36,182.2 388.14,38.48 322.05,159.16 480.43,146.86 476.72,61.29 327.2,99.07 306.93,99.87 435.09,187.97 344.88,207.48 427.82,226.77 323.91,226.61 352.04,81.71 305.17,222.37 262.9,170.98" stroke="#8d7467"/><line x1="338.58" y1="169.19" x2="421.61" y2="216.79" stroke="#8d7466"/></g><g fill="none" stroke-linecap="round"><polyline points="400,400 407.63,495.4 306.58,431.42 372.91,517.63 311.51,509.21 458.95,435.11 325.24,526.5 444.05,403.75 368.92,360.24 313.28,369.63 276.97,394.46 275.29,475.58 318.96,333.49 357.71,500.14 264.47,364.5 232.52,449.52 331.3,513.05 397.2,477.53 421.28,430.32 400.55,523.94 388.52,370.46 278.53,484.31 398.13,531.65 276.54,519.22 264.54,420.31 414.56,499.01 270.5,535.28 372.85,401.58 427.88,437.06 438.71,413.14 295.93,395.8 325.45,349.82 425.9,480.38 346,527.07 427.43,523.08 441.48,398.13 457.61,520.44 498.13,483.07 336.65,510.82 350.48,400.53 485.42,490.43 470.94,392.22 514.43,486.82 367.07,402.42 519.15,476.07 430.96,359.24 365.1,379.03 331.55,427.26 381.48,515.64 342.43,517.78 323.28,389.19 351.13,536.47 433.97,391.67 315.79,515.72 394.22,369.93 347.62,351.28 276.88,398.05 279.49,353.53 414.63,351.69 341.48,298.64 297.91,454.47 416.54,446.53 304.64,483.77 271.81,357.14 366.65,318.27 249.66,426.86 355.81,307.83 419.49,354.78 431.89,415.07 443.11,327.92 453.51,432.31 327.46,450.44 456.2,337.6 324.15,322.93 333.49,289.36 309.02,426.98 303.41,447.97 425.66,440.79 426.82,469.33 428.68,492.94 322.76,499.75 302.3,507.4 368.06,362.02 450.74,470.47 337.55,530.23 320.93,543.89 429.09,412.61 445.97,529.36 418.48,387.48 370.57,552.03 405.76,573.45 308.1,541.65 313.12,435.34 445,443.77 475.34,475.59 492.42,505.16 353.31,416.58 422.89,565.6 484.04,550.66 503.16,448.74 511.59,556.9 383.32,568.12 486.68,602.65" stroke="#011f4b"/><polyline points="450.3,536.26 513.39,464.29 529.64,590.39 454.26,442.79 566.13,496.46 560.58,578.95 441.6,596.54 422.03,476.42 538.02,452.78 577.21,471.1" stroke="#7b7c7e"/><line x1="508.68" y1="503.27" x2="480.46" y2="594.72" stroke="#6d7178"/><polyline points="502.78,522.38 408.58,505.51 520.4,607 557.35,606.15 571.11,482.67 543.06,444.71" stroke="#7b7c7e"/><line x1="523.74" y1="517.91" x2="610.22" y2="558.91" stroke="#6e7378"/><line x1="541.82" y1="526.48" x2="476.78" y2="596.7" stroke="#6d7178"/><line x1="528.23" y1="541.15" x2="611.35" y2="493.71" stroke="#7b7c7e"/><polyline points="545.6,531.24 597.88,611.4 632.91,605.65 630.81,635.92 591.11,671.39" stroke="#6d7178"/><line x1="586.02" y1="595.85" x2="559.62" y2="503.86" stroke="#7b7c7e"/><polyline points="580.5,576.63 649.87,510.69 666.03,626.98 561.86,493.44 584.2,653.37 514.98,628.73" stroke="#6d7178"/><polyline points="579.5,589.14 486.01,609.58 464.3,596.32 444.31,591.23 446.94,531.6 469.48,491.53 592.93,556.95" stroke="#7b7c7e"/></g><g fill="none" stroke-linecap="round"><polyline points="400,400 434.21,489.38 489.19,467.96 332.79,457.04 470.43,504.85 346.03,511.63 498.25,448.27 502.84,512.84 496.17,393.16 520.74,520.76 430.22,557.01 528.99,551.74 508.06,411.22 536.74,559.27" stroke="#b3cde0"/><polyline points="492.33,497.96 548.38,575.54 427.74,571.94 557.88,591.75 578.52,481.56 472.05,444.08 466.03,595.86 582.98,480.68 604.85,479.71" stroke="#818283"/><polyline points="535.55,510.18 590.95,588.22 642.77,529.83 560.87,622.69 566.57,642.84" stroke="#878b8e"/><line x1="565.97" y1="567.14" x2="628.4" y2="494.6" stroke="#818282"/><polyline points="579.01,551.98 614.88,463.25 518,466.61 574.15,423.79 511.8,425.57 501.91,560.17 643.46,502.22 635.23,432.53 619.23,574.34 493.98,506.04 627.39,581.29 611.92,611.71 542.63,624.11 645.08,488.67 665.02,605.51 653.79,639.97 703.67,532.49 656.87,658.31" stroke="#878b8e"/><line x1="639.83" y1="584.54" x2="563.52" y2="526.78" stroke="#4d3320"/><polyline points="623.88,572.47 548.94,632 658.12,666.58" stroke="#878b8e"/><line x1="618.65" y1="601.98" x2="604.47" y2="507.33" stroke="#888c8f"/><polyline points="615.69,582.2 522.49,560.41 524.11,640.58" stroke="#878b8e"/><polyline points="581.15,590.8 647.3,659.96 606.09,700.31" stroke="#818283"/><line x1="597.29" y1="625.12" x2="515.86" y2="675.4" stroke="#808181"/><line x1="580.28" y1="635.62" x2="662.01" y2="585.82" stroke="#818283"/><line x1="597.36" y1="625.22" x2="691.73" y2="641.14" stroke="#808181"/><polyline points="617.08,628.54 566.18,709.59 674.15,713.12 552.9,591.96 520.6,603.16" stroke="#4c321f"/><line x1="588.51" y1="636.63" x2="537.52" y2="555.64" stroke="#4d3321"/><polyline points="577.85,619.71 511.2,551.02 658.55,591.05 596.32,507.5" stroke="#818283"/><line x1="586.34" y1="582.54" x2="502.47" y2="536.42" stroke="#878b8e"/><line x1="568.81" y1="572.9" x2="473.18" y2="568.97" stroke="#828384"/><polyline points="548.83,572.08 464.64,617.61 602.17,517.35 611.92,498.73" stroke="#818283"/><line x1="559.82" y1="553.66" x2="506.6" y2="633.2" stroke="#878b8e"/><line x1="548.7" y1="570.28" x2="589.69" y2="483.8" stroke="#818283"/><polyline points="557.27,552.21 554.81,456.53 486.26,596.95" stroke="#878b8e"/><line x1="542.02" y1="545.74" x2="607.9" y2="476.31" stroke="#818283"/><polyline points="555.79,531.23 643.06,570.52 591.31,633.58 554.32,651.94" stroke="#878b8e"/><polyline points="572.76,578.51 534.87,666.39 490.09,656.63 454.55,623.42 436.43,589.73 604.06,589.89 493.53,515.26 438.61,538.59 544.04,662.82 474.61,506.1 436.29,642.23 559.61,655.7 589.31,648.56 428.42,629.72 486.91,521.94 461.48,508.78 586.63,566.74 575.7,504.87 529.05,656.62 440.86,536.8 534.87,663.61 587.12,529.63 465.52,506.49 425.25,531.96 407.83,521.42 530.82,469.33 481.21,437.2 538.12,431.4" stroke="#818283"/><line x1="498.11" y1="495.66" x2="483.61" y2="590.27" stroke="#888c8f"/><polyline points="495.08,515.43 455.17,602.42 574.61,495.68 469.72,614.61 593.26,549.69 423.84,564.23 472.06,457.23 477.96,435.51 444.13,426.09" stroke="#818283"/><polyline points="480.07,492.72 551.65,429.2 413.15,529 494.47,584.07" stroke="#b3cde0"/><polyline points="481.38,509.5 414.59,578.05 444.58,430.89" stroke="#818283"/><line x1="462.65" y1="504.41" x2="543.62" y2="555.43" stroke="#b3cde0"/><polyline points="479.57,515.07 423.29,592.48 372.1,531.47 381.28,462.49" stroke="#818283"/><line x1="433.9" y1="516.91" x2="463.79" y2="607.84" stroke="#b3cde0"/><line x1="440.15" y1="535.91" x2="507.62" y2="603.79" stroke="#828383"/><line x1="454.25" y1="550.1" x2="365.63" y2="586.25" stroke="#818283"/><line x1="435.73" y1="557.65" x2="492.15" y2="634.96" stroke="#858889"/><line x1="447.52" y1="573.81" x2="366.43" y2="624.64" stroke="#818283"/><polyline points="430.58,584.43 379.78,503.32 397.05,660.4 333.56,536.91 488.85,606.91 507.86,552.52 392.95,661.94" stroke="#858889"/></g><g fill="none" stroke-linecap="round"><polyline points="400,400 476.56,342.57 341.54,327.87 444.71,290.58 475.12,427.55 392.15,462.77 322.63,408.07 329.65,326.89 467.05,334.69 438.8,458.72 341.3,457.37 324.35,468.6 441.12,490.66 475.54,384.63 383.53,514.47 335.38,507.95 469.47,402.19 477.5,508.72 467.54,541.71 454.06,382.47 357.27,401.36 324.63,457.59 463.45,518.59 319.65,483.44 332.19,393.11 361.7,357.45 320.71,354.03 279.46,372.51 383.23,317.83 292.73,314.98 283.12,297.03 411.19,307.05 413.95,278.52 439.04,387.15 444.74,411.37 389.56,453.56 429.01,465.63 304.05,409.61 474.72,398.92 459.92,325.17 393.37,289.63 335.13,426.09 472.47,429.79 341.16,320.83 397.21,278.26 480.63,310.11 387.28,252.69 428.55,232.09 483.94,242.66 472.22,208.32" stroke="#03396c"/><line x1="436.6" y1="275.12" x2="341.65" y2="263.19" stroke="#b09b87"/><line x1="416.76" y1="272.63" x2="510.81" y2="290.35" stroke="#03396c"/><line x1="436.42" y1="276.33" x2="522.66" y2="317.83" stroke="#b09b87"/><line x1="454.44" y1="285" x2="416.23" y2="197.25" stroke="#03396c"/><polyline points="446.45,266.67 532.43,308.7 434.6,366.39" stroke="#b09b87"/><line x1="458.19" y1="294.46" x2="547.05" y2="258.92" stroke="#03396c"/><polyline points="476.76,287.03 565.55,322.74 569.92,354.45" stroke="#b09b87"/><line x1="510.9" y1="307.02" x2="444.69" y2="237.92" stroke="#9a8f84"/><line x1="497.07" y1="292.58" x2="417.81" y2="346.23" stroke="#b09b87"/><polyline points="480.51,303.79 427.74,383.64 374.17,329.21 464.73,227.81 400.66,222.25 529.7,323.75 398.55,366.91 382.9,238.24 356.27,350.25 483.28,375.58 360.33,384.62 345.75,269.45 323.76,264.92 433.1,391.82 355.01,239.4 457.86,243.75 457.05,216.47 434.82,371.53 509.89,271.65 363.05,231.62 405.01,373.88 462.12,384.32 518.17,347.18 515.89,257.66 540.5,256.58 420.43,221.72" stroke="#03396c"/><line x1="465.56" y1="282.5" x2="490.54" y2="374.89" stroke="#b09b87"/><line x1="470.78" y1="301.8" x2="550.33" y2="248.58" stroke="#03396c"/><line x1="487.41" y1="290.68" x2="499.33" y2="385.64" stroke="#b09b87"/><polyline points="489.9,310.53 394.5,318.19 448.76,405.46 412.64,251.87 365.69,350.69 427.51,227.09 365.4,369.07 515.39,311.8 372.27,383.29 345.57,277.24 459.44,399.97 386.85,425.64 368.34,439.29 314.79,336.04 314.6,429.61 274.9,387.08 295.3,458.41 387.3,478.94 281.26,481.36 403.03,494.93 399.3,360.39 291.75,357.28 406.3,336.9 440.71,443.63 443.73,472.37 441.87,499.59 415.21,530.73 308.14,462.4 454.94,393.39 310.14,407.31 298.31,485.99 428.61,516.34 434.94,537.17 350.04,389.62 418.91,546.59 323.43,547.13 389.67,397.19 297.96,524.27 289.13,545.69 267.54,550.44" stroke="#03396c"/><line x1="329.83" y1="507.41" x2="423.45" y2="527.26" stroke="#606e7b"/><polyline points="349.39,511.56 437.36,473.87 277.64,535.88 443.06,527.79 418.68,432.48 472.94,478.32 314.33,447.9 312.72,550.66 438.72,434.54 292.76,519.53 328.89,581.14 276.45,457.29 433.31,517.83 436.17,559.86 420.48,599.34" stroke="#03396c"/><line x1="384.62" y1="532.66" x2="355.53" y2="441.49" stroke="#73787d"/><polyline points="378.54,513.61 391.76,418.82 354.31,585.62 371.59,417.37 308.49,424.01 306.34,557.19 277.55,558.08 246.68,546.24" stroke="#03396c"/></g><g fill="none" stroke-linecap="round"><polyline points="400,400 332.52,467.87 436.05,332.67 457.71,323.67 448.62,469 376.27,313.62 347.61,455.53 457.5,470.7 481.04,349.8 363.9,325.02 325.98,340.83 484.81,403.79 368.51,465.91 454.15,479.87 485.95,478.8 517.83,464.61 512.6,366.09 556.82,418.01 445.36,332.14 488.44,496.91 388.5,459.1 551.1,406.36 499.8,518.06 558.69,502.08 554.08,534.21" stroke="#b3cde0"/><polyline points="509.94,472.7 569.49,397.77 577.6,378.87 589.95,363.11" stroke="#878b8e"/><polyline points="545.63,424.49 576.49,333.89 480.73,341.77 491.62,308.05 590.24,302.23" stroke="#7d7b7a"/><line x1="540.73" y1="359.51" x2="503" y2="447.46" stroke="#746e6a"/><line x1="532.85" y1="377.89" x2="445.12" y2="416.16" stroke="#7d7b7a"/><polyline points="514.51,385.88 434.1,333.99 415.42,326.17 539.57,289.51 552.95,274.61 445.88,258.59 577.29,272.6" stroke="#b3cde0"/><polyline points="510.59,308.4 586.11,249.61 478.91,379.23 579.71,241.66 581.38,379.01 617.23,258.13 491.66,232.98 595.64,208.74 606.37,352.04 534.84,197.83 491.41,201.58" stroke="#746f6b"/><line x1="544.59" y1="255.47" x2="509.89" y2="344.66" stroke="#746e6a"/><line x1="537.34" y1="274.1" x2="556.72" y2="180.38" stroke="#746f6b"/><polyline points="541.39,254.52 603.09,181.36 546,334.58" stroke="#6c625a"/><line x1="552.55" y1="259.16" x2="457.34" y2="268.9" stroke="#746f6b"/><polyline points="532.65,261.19 453.12,314.43 444.33,208.92 585.24,304.59" stroke="#6c625a"/><line x1="518.64" y1="268.58" x2="499.17" y2="362.28" stroke="#6b615a"/><line x1="514.57" y1="288.16" x2="435.31" y2="341.8" stroke="#746f6b"/><line x1="498.01" y1="299.37" x2="552.26" y2="378.22" stroke="#6c625b"/><polyline points="509.35,315.85 560.66,235.06 424.5,293.92" stroke="#746f6b"/><line x1="500.1" y1="297.91" x2="437.39" y2="370.21" stroke="#6b615a"/></g><g fill="none" stroke="#b3cde0" stroke-linecap="round"><polyline points="400,400 463.72,328.59 359.03,306.26 454.56,288.64 504.83,378.71 401,447.99 410.25,281.95 379.07,271.35 347.39,269.51 329.48,389.51 452.78,405.46 395.26,447.7 396.33,276.37 304.09,371.07 309.66,422.74 452.16,332.84 477.77,369.99 314.79,325.13 459.41,296.78 410.78,438.5 491.45,397.52 345.73,311.02 323.93,408.77 434.44,452.38 322.68,445.43 466.98,442.74 329.66,342.7 450.38,464.23 478.62,356 331.07,442.89 482.14,361.88 450.13,486.93 380.53,502.28 375.79,522.12 368.2,540.63 305.27,494.58 379.7,380.27 365.06,361.26 428.83,515.98 467.27,505.01 411.89,559.12 461.38,561.38 509.58,475.02 367.31,428.57 494.57,418.47 505.22,535.16 376.31,422.58 441.1,373.96 529.31,474.23 422.91,544.45 394.59,394.87 511.49,395.96 374.95,499.39 496.75,381.15 498.52,522.31 392.54,525.6 472.59,563.44 546.21,478.85 376.49,473.84 376.95,425.05 497.52,399.57 375.84,395.34 354.48,498.49 353.14,384.41 491.38,479.02 509.78,410.77 521.7,390.5 545.19,392.42 542.06,353.47 557.43,340.54 587.91,348.36 476.74,299.71 432.85,420.48 430.19,307.95 478.27,267.67 474.32,438.79 385.41,379.83 453.56,462.22 513.73,308.43 471.25,446.51 383.15,346.87"/></g><g fill="none" stroke-linecap="round"><polyline points="400,400 331.97,467.32 295.16,444.85 272.77,402.91 369.8,509.82 284.11,368.71 247.95,455.26 246.54,491.61 294.3,537.36 236.52,531.97" stroke="#6497b1"/><polyline points="288.2,476.65 294.07,572.18 355.99,427.85" stroke="#79858b"/><line x1="303.34" y1="482.24" x2="238.13" y2="552.3" stroke="#6497b1"/><line x1="289.71" y1="496.88" x2="384.74" y2="485.51" stroke="#79858b"/><polyline points="309.57,494.51 253.68,572.2 224.31,449.54" stroke="#78858c"/><polyline points="282.51,497.95 363.01,446.19 380.99,437.22" stroke="#79858b"/><polyline points="316.4,476.7 248.28,409.47 369.28,530.88 392.11,418.63 383.95,384.32 413.56,512.47 278.97,515.88 299.97,559.16 404.81,428.03 262.27,434.56 244.1,426.18 247.97,531.02 367.51,408.33 382.25,526.85 258.96,407.77 253.55,385.76 219.64,495.91" stroke="#6497b1"/><polyline points="283.75,455.64 234.17,373.78 201.97,502.24 353.89,444.57 348.26,384.91" stroke="#79858b"/><polyline points="293,436.65 329.27,348.09 206.83,398.89 206.79,474.58" stroke="#6497b1"/><polyline points="265.48,426.76 251.81,332.03 357.25,392.61" stroke="#7e8182"/><polyline points="282.4,403.96 331.4,321.75 358.56,456.17 235.32,337.21 331.83,301.07 334.61,280.53 240.53,419.76 260.26,275.62 190.68,345.62" stroke="#6497b1"/><polyline points="266.38,346.46 181.26,302.7 311.14,409.75 235.43,260.41 182.64,394.46 163.78,402.81" stroke="#77878f"/><line x1="224.72" y1="357.89" x2="304.9" y2="410.13" stroke="#7e8183"/></g><g fill="none" stroke-linecap="round"><polyline points="400,400 308.81,429.04 348.46,496.1 279.73,440.5 332.31,521.26 405.56,369.82 399.24,519.28 358.31,544.79 462.66,473.71 325.64,543.88 397.72,578.57 285.99,483.09 270.83,536.21 403.01,580.99" stroke="#011f4b"/><polyline points="354.03,523.27 284.44,588.97 431.06,564.81" stroke="#5f6772"/><line x1="358.62" y1="542.81" x2="453.25" y2="557.18" stroke="#616873"/><polyline points="378.4,545.81 429.3,464.77 484.6,523.59 441.52,617.78 504.19,509.89 482.82,621.39" stroke="#72767a"/><line x1="444.42" y1="556.15" x2="349.13" y2="547.2" stroke="#7a7b7d"/><polyline points="424.5,554.28 361.25,626.1 450.22,656.72 475.93,510.32 501.85,636.01 480.61,674.14" stroke="#72767a"/><line x1="453.22" y1="603.56" x2="444.63" y2="508.24" stroke="#717479"/><line x1="451.43" y1="583.64" x2="356.92" y2="598.77" stroke="#7b7c7e"/><polyline points="431.68,586.8 359.11,524.41 461.88,658.04 377.11,673.65 421.79,513.05 338.21,642.89 309.54,629.53 308.3,544.53 293.64,530.89" stroke="#72767a"/><line x1="351.06" y1="580.22" x2="349.02" y2="484.54" stroke="#696e76"/><line x1="350.64" y1="560.23" x2="440.9" y2="592.04" stroke="#5f6772"/><polyline points="369.5,566.88 335.88,656.48 402.75,498.78 448.67,623.23 467.67,630.84 468.47,660.63 420.55,700.36 488.87,689.12 356.36,580.67 449.9,536.3 514.42,576.62 406.62,512.31 348,621.9 384.97,680.87 478.41,542.3 329,589.42 482.15,538.18 496.67,640.81 488.57,514.3" stroke="#72767a"/><line x1="447.49" y1="577.89" x2="484.98" y2="665.94" stroke="#75777b"/><line x1="455.32" y1="596.29" x2="428.11" y2="504.53" stroke="#7b7c7e"/><line x1="449.64" y1="577.11" x2="489.45" y2="490.08" stroke="#7c7d7e"/></g><g fill="none" stroke-linecap="round"><polyline points="400,400 468.61,333.27 361.07,465.57 498.51,411.48 328.19,416.65 321.95,457.5 318.31,350.23 305.25,335.01 270.9,428.61 419.93,344.97 406.03,304.51 455.51,405.61 296.18,411.43 285.83,435.16 366.8,488.99 306.22,497.74 292.11,512.59 348.92,543.08 394.69,544.19 298.51,565.96 268.3,566.97" stroke="#011f4b"/><polyline points="323.42,515.07 253.71,580.65 262.35,612.42 394.76,550.05 230.59,510.67 281.47,633.21 307.64,654.11 236.75,506.14 377.96,537.44 267.81,470.1 206.37,510.12 254.33,626.24 194.86,607.75 186.74,629.48 190.24,658.34 192.64,682.3 291.42,545.86 145.8,626.34 196.3,697.87 261.4,541.2 147.95,548.37" stroke="#5f6772"/><line x1="207.88" y1="594.63" x2="274.76" y2="526.18" stroke="#606772"/><line x1="221.85" y1="580.33" x2="145.89" y2="522.12" stroke="#5e6671"/></g><g fill="none" stroke-linecap="round"><polyline points="400,400 383.98,305.64 484.13,341.45 471.67,449.24 416.26,483.4 348.69,466.45 340.36,487.31 357.55,346.02 317.5,349.79 333.36,314.62 277.49,343.15 389.98,460.32 318.78,481.56 281.12,480.41 428.63,438.17 448.54,440.09 442.05,364.24 474.11,375.75 326.68,462.24 458.86,485.32 352.48,514.14 471.34,395.15 329.18,386.59 470.02,371.47 473.55,345.55 361.65,475.31 347.34,489.41 322.63,371.28 395.07,513.97 307.73,381.35 281.63,467.98 354.44,531.17 351.17,359.84 258.77,410.01 238.34,451.13 240.25,497.67 366.34,513.92 263.12,544.09 382.37,427.66 340.61,375.05 257.27,379.15 219.33,466.8 306,535.42 267.16,368.77 290.02,345.81 309.63,328.14 211.7,351.44 181.15,404.33" stroke="#011f4b"/><line x1="256.17" y1="394.13" x2="341.69" y2="351.15" stroke="#797b7d"/><line x1="274.04" y1="385.15" x2="203.29" y2="449.6" stroke="#011f4b"/></g><polyline points="486.99,313.02 511.47,405.54 402.21,299.51 523.7,406.87 449.53,431.84 383.64,383.59 520.87,437.34 566.12,385.55 423.42,313.53 404.68,304.25 370.63,384.38 518.54,302.47 391.41,416.81 350.49,344.23 355.5,292.82 348.18,272.25 328.35,396.21 396.38,438.46 467.89,314.45 354.14,270.9 486.89,319.06 506.8,316.85 349.74,377.95 350.26,268.84 350.75,405.87 405.37,436.23 316.31,305.31 473.09,356.85 473.38,409.62 393.1,456.91 480.13,318.7 342.98,420.45 369.79,292.01 407.44,266.38 439.97,254.4 504.59,330.42 501.71,387.3 520.33,396.09 398.26,277.15" fill="none" stroke="#b3cde0" stroke-linecap="round"/><g fill="none" stroke="none" stroke-linecap="butt" font-family="sans-serif" font-weight="normal" font-size="12" text-anchor="start"/><polyline points="400,400 448.73,482.37 465.84,495.08 356.45,503.39 313.75,463.8 318.95,385.55 439.81,368.22 295.97,450.47 277.27,457.73 253.79,437.88 280.75,517.89 414.95,455.18 263.82,394.36 227.86,437.43 235.73,507.76 328.57,541.61 372.98,413.65 390.44,516.91 242.75,431.51 381.09,529.12 419.25,498.4" fill="none" stroke="#6497b1" stroke-linecap="round"/><g fill="none" stroke="#6497b1" stroke-linecap="round"><polyline points="400,400 322.03,344.49 479.22,394.4 384.9,295.81 339.22,295.9 481.98,367.08 497.9,386.88 354.62,299.55 458.36,266.85 335.57,375.95 350.75,261.58 321.18,389.16 449.33,275.33 361.39,234.65 456.74,370.62 310.08,288.93 446.77,243.05 299.79,303.87 436.46,226.03 325.15,212.26"/></g><polyline points="241.47,368.8 149.58,342.05 214.91,458.64 272.76,302.83 153.29,421.38 309.55,394.17 188.42,297.63 222.86,459.47 274.17,465.73 329.81,414.43 169.5,360.46 225.4,489.69 139.62,426.33 183.99,326.38 223.12,303.51" fill="none" stroke="#7e8182" stroke-linecap="round"/><polyline points="205.98,568.16 272.55,499.4 128.27,581.46 276.27,500.8 123.96,522.99 270.03,604.29 288.61,497.28 169.72,467.42 302.49,568.44 138.45,534.22 273.22,610.83" fill="none" stroke="#626973" stroke-linecap="round"/><polyline points="457.96,558.92 387.08,494.61 538.7,540.18 545.8,592.58 409.73,619 392.45,629.62" fill="none" stroke="#7b7c7e" stroke-linecap="round"/><polyline points="259.26,398.62 191.4,466.1 274.29,503.86" fill="none" stroke="#797b7d" stroke-linecap="round"/><line x1="374.98" y1="269.25" x2="344.43" y2="359.95" fill="none" stroke="#8d7467" stroke-linecap="round"/></g></svg>