<svg version="1.1" xmlns="http://www.w3.org/2000/svg" xmlns:xlink="http://www.w3.org/1999/xlink" width="800" height="800" viewBox="0,0,800,800"><g fill="none" fill-rule="nonzero" stroke="none" stroke-width="none" stroke-linecap="none" stroke-linejoin="miter" stroke-miterlimit="10" stroke-dasharray="" stroke-dashoffset="0" font-family="none" font-weight="none" font-size="none" text-anchor="none" style="mix-blend-mode: normal"><rect x="0" y="0" width="800" height="800" fill="#a4626c" stroke="none" stroke-width="1" stroke-linecap="butt"></rect><g fill="none" stroke-linecap="round"><polyline points="400,400 405.51,419.23 411.03,438.45 394.64,449.92 377.71,460.57 360.75,471.17 343.79,481.76 326.83,492.36 309.87,502.96 292.91,513.56 275.45,503.8 258.46,493.24 241.5,482.64 224.54,472.05 207.58,461.45" stroke="#fa2808" stroke-width="20"></polyline><polyline points="207.58,461.45 190.62,450.85 173.66,440.25 178.16,420.76 183.62,401.52 189.13,382.3" stroke="#f05d77" stroke-width="1"></polyline><polyline points="189.13,382.3 194.64,363.07 200.15,343.85 205.67,324.62 211.18,305.4 231.15,304.35" stroke="#fa2808" stroke-width="20"></polyline><polyline points="231.15,304.35 251.15,304.3 271.15,304.29 291.15,304.29 311.15,304.29 331.15,304.29 351.15,304.29 357.66,323.2 363.23,342.41 368.74,361.64 374.26,380.86 379.77,400.09" stroke="#f05d77" stroke-width="1"></polyline><polyline points="379.77,400.09 385.28,419.31 390.79,438.54 374.41,450.01 357.48,460.65 340.52,471.26 323.56,481.85 306.6,492.45 289.64,503.05 272.18,493.29 255.19,482.73 238.23,472.13 221.27,461.54 204.31,450.94" stroke="#fa2808" stroke-width="20"></polyline><polyline points="204.31,450.94 187.35,440.34 170.39,429.74 174.89,410.25 180.35,391.01" stroke="#f05d77" stroke-width="1"></polyline><polyline points="180.35,391.01 185.86,371.79 191.37,352.56 196.88,333.34 202.4,314.11 207.91,294.89 227.88,293.84 247.88,293.79" stroke="#fa2808" stroke-width="20"></polyline><polyline points="247.88,293.79 267.88,293.78 287.88,293.78 307.88,293.78 327.88,293.78 347.88,293.78 354.39,312.7 359.96,331.91 365.47,351.13 370.98,370.36 376.5,389.58 382.01,408.81" stroke="#f05d77" stroke-width="1"></polyline><polyline points="382.01,408.81 387.52,428.03 371.14,439.5 354.21,450.15 337.25,460.75 320.29,471.34 303.33,481.94 286.36,492.54 268.91,482.78 251.92,472.22 234.96,461.63 218,451.03 201.04,440.43" stroke="#fa2808" stroke-width="20"></polyline><polyline points="201.04,440.43 184.08,429.83 167.12,419.23 171.62,399.75 177.08,380.5" stroke="#f05d77" stroke-width="1"></polyline><polyline points="177.08,380.5 182.59,361.28 188.1,342.05 193.61,322.83 199.13,303.6 204.64,284.38 224.61,283.33 244.61,283.28" stroke="#fa2808" stroke-width="20"></polyline><polyline points="244.61,283.28 264.61,283.28 284.61,283.28 304.61,283.28 324.61,283.28 344.61,283.28 351.12,302.19 356.69,321.4 362.2,340.62 367.71,359.85 373.23,379.07 378.74,398.3 384.25,417.52" stroke="#f05d77" stroke-width="1"></polyline><polyline points="384.25,417.52 367.87,428.99 350.94,439.64 333.98,450.24 317.02,460.84 300.06,471.43 283.09,482.03 265.64,472.27 248.65,461.71 231.69,451.12 214.73,440.52 197.77,429.92" stroke="#fa2808" stroke-width="20"></polyline><polyline points="197.77,429.92 180.81,419.32 163.85,408.72 168.35,389.24" stroke="#f05d77" stroke-width="1"></polyline><polyline points="168.35,389.24 173.81,370 179.32,350.77 184.83,331.54 190.34,312.32 195.85,293.09 201.37,273.87 221.34,272.82 241.34,272.77 261.34,272.77" stroke="#fa2808" stroke-width="20"></polyline><polyline points="261.34,272.77 281.34,272.77 301.34,272.77 321.34,272.77 341.34,272.77 347.85,291.68 353.42,310.89 358.93,330.11 364.44,349.34 369.96,368.56 375.47,387.79 380.98,407.01" stroke="#f05d77" stroke-width="1"></polyline><polyline points="380.98,407.01 364.6,418.48 347.67,429.13 330.71,439.73 313.75,450.33 296.78,460.93 279.82,471.52 262.37,461.76 245.38,451.2 228.42,440.61 211.46,430.01 194.5,419.41" stroke="#fa2808" stroke-width="20"></polyline><polyline points="194.5,419.41 177.54,408.81 160.58,398.21" stroke="#f05d77" stroke-width="1"></polyline><polyline points="160.58,398.21 165.08,378.73 170.54,359.49 176.05,340.26 181.56,321.04 187.07,301.81 192.58,282.59 198.1,263.36 218.07,262.32 238.07,262.26 258.07,262.26" stroke="#fa2808" stroke-width="20"></polyline><polyline points="258.07,262.26 278.07,262.26 298.07,262.26 318.07,262.26 338.07,262.26 344.58,281.17 350.14,300.38 355.66,319.6 361.17,338.83 366.69,358.05" stroke="#f05d77" stroke-width="1"></polyline></g><g fill="none" stroke-linecap="round"><line x1="400" y1="400" x2="383.04" y2="389.4" stroke="#5d8786" stroke-width="20"></line><polyline points="383.04,389.4 366.08,378.8 370.58,359.32 376.04,340.08 381.55,320.85 387.06,301.62 392.57,282.4 398.09,263.17 418.06,262.13 438.06,262.07 458.06,262.07 478.06,262.07 498.06,262.07 518.06,262.07 524.57,280.98 530.13,300.19 535.65,319.42 541.16,338.64 546.68,357.87 552.19,377.09 535.8,388.56 518.87,399.21 501.91,409.81" stroke="#a27879" stroke-width="1"></polyline><polyline points="501.91,409.81 484.95,420.41 467.99,431.01 450.54,421.24 433.55,410.69 416.59,400.09 399.63,389.49" stroke="#5d8786" stroke-width="20"></polyline><polyline points="399.63,389.49 382.66,378.89 365.7,368.29 370.2,348.81 375.66,329.57 381.17,310.34 386.69,291.12 392.2,271.89 397.71,252.67 417.69,251.62 437.69,251.57 457.69,251.56 477.69,251.56 497.69,251.56 517.69,251.56 524.2,270.47 529.76,289.68 535.28,308.91 540.79,328.13 546.3,347.36 551.81,366.58 535.43,378.05 518.5,388.7 501.54,399.3 484.58,409.9" stroke="#a27879" stroke-width="1"></polyline><polyline points="484.58,409.9 467.62,420.5 450.16,410.73 433.17,400.18 416.21,389.58" stroke="#5d8786" stroke-width="20"></polyline><polyline points="416.21,389.58 399.25,378.98 382.29,368.38 365.33,357.79 369.83,338.3 375.29,319.06 380.8,299.83 386.31,280.61 391.83,261.38 397.34,242.16 417.31,241.11 437.31,241.06 457.31,241.05 477.31,241.05 497.31,241.05 517.31,241.05 523.82,259.96 529.39,279.17 534.9,298.4 540.41,317.62 545.93,336.85 551.44,356.07 535.06,367.54 518.12,378.19 501.16,388.79 484.2,399.39 467.24,409.99" stroke="#a27879" stroke-width="1"></polyline><polyline points="467.24,409.99 449.79,400.22 432.8,389.67" stroke="#5d8786" stroke-width="20"></polyline><polyline points="432.8,389.67 415.84,379.07 398.88,368.47 381.92,357.87 364.96,347.28 369.46,327.79 374.92,308.55 380.43,289.32 385.94,270.1 391.45,250.87 396.96,231.65 416.94,230.6 436.94,230.55 456.94,230.54 476.94,230.54 496.94,230.54 516.94,230.54" stroke="#a27879" stroke-width="1"></polyline><line x1="516.94" y1="230.54" x2="523.45" y2="249.46" stroke="#5d8786" stroke-width="20"></line><polyline points="523.45,249.46 529.01,268.67 534.53,287.89 540.04,307.12 545.55,326.34 551.07,345.57 534.68,357.04 517.75,367.68 500.79,378.28 483.83,388.88 466.87,399.48 449.41,389.71 432.43,379.16 415.46,368.56 398.5,357.96 381.54,347.37 364.58,336.77 369.08,317.28 374.54,298.04 380.05,278.81 385.56,259.59 391.08,240.36 396.59,221.14 416.56,220.09 436.56,220.04 456.56,220.04 476.56,220.04 496.56,220.04" stroke="#a27879" stroke-width="1"></polyline><polyline points="496.56,220.04 516.56,220.04 523.07,238.95 528.64,258.16" stroke="#5d8786" stroke-width="20"></polyline><polyline points="528.64,258.16 534.15,277.38 539.67,296.61 545.18,315.83 550.69,335.06 534.31,346.53 517.38,357.17 500.42,367.77 483.46,378.37 466.49,388.97 449.04,379.2 432.05,368.65 415.09,358.05 398.13,347.45" stroke="#a27879" stroke-width="1"></polyline></g><g fill="none" stroke-linecap="round"><polyline points="400,400 383.04,410.6 366.08,421.2 348.62,411.43 331.64,400.88 314.67,390.28" stroke="#5b5362" stroke-width="20"></polyline><polyline points="314.67,390.28 297.71,379.68 280.75,369.08 263.79,358.49 268.29,339 273.75,319.76 279.26,300.53 284.77,281.31 290.29,262.08 295.8,242.86 315.77,241.81 335.77,241.76 355.77,241.75 375.77,241.75 395.77,241.75 415.77,241.75 422.28,260.67 427.85,279.88 433.36,299.1 438.88,318.32 444.39,337.55 449.9,356.78 433.52,368.25 416.59,378.89 399.63,389.49 382.66,400.09" stroke="#a4ac9d" stroke-width="1"></polyline><polyline points="382.66,400.09 365.7,410.69 348.74,421.29 331.29,411.52 314.3,400.97 297.34,390.37" stroke="#5b5362" stroke-width="20"></polyline><polyline points="297.34,390.37 280.38,379.77 263.42,369.17 267.92,349.69 273.38,330.45 278.89,311.22 284.4,291.99 289.91,272.77 295.43,253.54 315.4,252.5 335.4,252.44 355.4,252.44 375.4,252.44 395.4,252.44 415.4,252.44 421.91,271.35 427.47,290.56 432.99,309.79 438.5,329.01 444.01,348.24 449.53,367.46 433.14,378.93 416.21,389.58 399.25,400.18" stroke="#a4ac9d" stroke-width="1"></polyline><polyline points="399.25,400.18 382.29,410.78 365.33,421.38 348.37,431.97 330.91,422.21 313.93,411.65 296.96,401.06 280,390.46" stroke="#5b5362" stroke-width="20"></polyline><polyline points="280,390.46 263.04,379.86 246.08,369.26 250.58,349.78 256.04,330.54 261.55,311.31 267.06,292.08 272.58,272.86 278.09,253.63 298.06,252.59 318.06,252.53 338.06,252.53 358.06,252.53 378.06,252.53 398.06,252.53 404.57,271.44 410.14,290.65 415.65,309.88 421.17,329.1 426.68,348.33 432.19,367.55 415.81,379.02 398.88,389.67 381.92,400.27" stroke="#a4ac9d" stroke-width="1"></polyline><polyline points="381.92,400.27 364.96,410.87 347.99,421.46 330.54,411.7 313.55,401.14 296.59,390.55" stroke="#5b5362" stroke-width="20"></polyline><polyline points="296.59,390.55 279.63,379.95 262.67,369.35 245.71,358.75 250.21,339.27 255.67,320.03 261.18,300.8 266.69,281.58 272.2,262.35 277.72,243.12 297.69,242.08 317.69,242.03 337.69,242.02 357.69,242.02 377.69,242.02 397.69,242.02 404.2,260.93 409.76,280.14 415.28,299.37 420.79,318.59 426.3,337.82 431.82,357.04 415.43,368.51 398.5,379.16 381.54,389.76 364.58,400.36" stroke="#a4ac9d" stroke-width="1"></polyline><polyline points="364.58,400.36 347.62,410.96 330.66,421.55 313.2,411.79 296.22,401.23 279.25,390.64" stroke="#5b5362" stroke-width="20"></polyline><polyline points="279.25,390.64 262.29,380.04 245.33,369.44 249.83,349.95 255.29,330.71 260.8,311.49 266.32,292.26 271.83,273.04 277.34,253.81 297.31,252.77 317.31,252.71 337.31,252.71 357.31,252.71 377.31,252.71 397.31,252.71 403.82,271.62 409.39,290.83 414.9,310.06 420.42,329.28 425.93,348.51 431.44,367.73 415.06,379.2 398.13,389.85 381.17,400.45" stroke="#a4ac9d" stroke-width="1"></polyline><line x1="381.17" y1="400.45" x2="364.21" y2="411.05" stroke="#5b5362" stroke-width="20"></line></g><g fill="none" stroke-linecap="round"><polyline points="400,400 405.51,419.23 411.03,438.45 416.54,457.68 422.05,476.9 427.56,496.13 433.08,515.35 416.69,526.82 399.76,537.47 382.8,548.07 365.84,558.67 348.88,569.26 331.92,579.86 314.96,590.46" stroke="#5d8786" stroke-width="20"></polyline><polyline points="314.96,590.46 297.5,580.7 280.52,570.14 263.55,559.54 246.59,548.95 229.63,538.35 212.67,527.75 195.71,517.15 178.75,506.55 183.25,487.07 188.71,467.83 194.22,448.6 199.73,429.37 205.24,410.15" stroke="#a27879" stroke-width="1"></polyline><line x1="205.24" y1="410.15" x2="210.76" y2="390.92" stroke="#5d8786" stroke-width="20"></line><polyline points="210.76,390.92 216.27,371.7 221.78,352.47 241.76,351.43 261.76,351.37 281.76,351.37 301.76,351.37 321.76,351.37 341.76,351.37 361.76,351.37 381.76,351.37 388.26,370.28 393.83,389.49 399.35,408.72" stroke="#a27879" stroke-width="1"></polyline><polyline points="399.35,408.72 404.86,427.94 410.37,447.17 415.88,466.39 421.4,485.62 426.91,504.84 410.53,516.31 393.59,526.96 376.63,537.56 359.67,548.16 342.71,558.75 325.75,569.35 308.79,579.95" stroke="#5d8786" stroke-width="20"></polyline><polyline points="308.79,579.95 291.34,570.19 274.35,559.63 257.39,549.04 240.42,538.44 223.46,527.84 206.5,517.24 189.54,506.64 194.04,487.16 199.5,467.91 205.01,448.69 210.53,429.46" stroke="#a27879" stroke-width="1"></polyline><polyline points="210.53,429.46 216.04,410.24 221.55,391.01" stroke="#5d8786" stroke-width="20"></polyline><polyline points="221.55,391.01 227.06,371.79 232.58,352.56 252.55,351.52 272.55,351.46 292.55,351.46 312.55,351.46 332.55,351.46 352.55,351.46 372.55,351.46 392.55,351.46 399.06,370.37 404.62,389.58 410.14,408.81" stroke="#a27879" stroke-width="1"></polyline><polyline points="410.14,408.81 415.65,428.03 421.16,447.26 426.68,466.48 432.19,485.71 437.7,504.93 421.32,516.4 404.39,527.05 387.43,537.65 370.47,548.25 353.51,558.84 336.54,569.44 319.58,580.04 302.62,590.64" stroke="#5d8786" stroke-width="20"></polyline><polyline points="302.62,590.64 285.17,580.87 268.18,570.32 251.22,559.72 234.26,549.12 217.3,538.53 200.34,527.93 183.37,517.33 187.88,497.84 193.34,478.6 198.85,459.38 204.36,440.15" stroke="#a27879" stroke-width="1"></polyline><polyline points="204.36,440.15 209.87,420.93 215.38,401.7 220.9,382.48" stroke="#5d8786" stroke-width="20"></polyline><polyline points="220.9,382.48 226.41,363.25 246.38,362.21 266.38,362.15 286.38,362.15 306.38,362.15 326.38,362.15 346.38,362.15 366.38,362.15 386.38,362.15 392.89,381.06 398.46,400.27" stroke="#a27879" stroke-width="1"></polyline><polyline points="398.46,400.27 403.97,419.49 409.49,438.72 415,457.94 420.51,477.17 426.02,496.39 431.54,515.62 415.15,527.09 398.22,537.73 381.26,548.33 364.3,558.93 347.34,569.53 330.38,580.13 313.42,590.73" stroke="#5d8786" stroke-width="20"></polyline><polyline points="313.42,590.73 296.46,601.33 279,591.56 262.01,581.01 245.05,570.41 228.09,559.81 211.13,549.21 194.17,538.62 177.21,528.02 181.71,508.53 187.17,489.29 192.68,470.06 198.19,450.84 203.7,431.61" stroke="#a27879" stroke-width="1"></polyline><polyline points="203.7,431.61 209.22,412.39 214.73,393.16" stroke="#5d8786" stroke-width="20"></polyline><polyline points="214.73,393.16 220.24,373.94 240.21,372.89 260.21,372.84 280.21,372.84 300.21,372.84 320.21,372.84 340.21,372.84 360.21,372.84 380.21,372.84 386.72,391.75 392.29,410.96" stroke="#a27879" stroke-width="1"></polyline><polyline points="392.29,410.96 397.81,430.18 403.32,449.41 408.83,468.63 414.34,487.86 419.86,507.08 425.37,526.31 408.98,537.78 392.05,548.42 375.09,559.02 358.13,569.62 341.17,580.22 324.21,590.82" stroke="#5d8786" stroke-width="20"></polyline><polyline points="324.21,590.82 307.25,601.42 290.29,612.01 272.83,602.25 255.85,591.69 238.88,581.1 221.92,570.5 204.96,559.9 188,549.3 171.04,538.71 175.54,519.22 181,499.98 186.51,480.75 192.02,461.53 197.54,442.3 203.05,423.08" stroke="#a27879" stroke-width="1"></polyline><polyline points="203.05,423.08 208.56,403.85 214.07,384.63" stroke="#5d8786" stroke-width="20"></polyline><polyline points="214.07,384.63 234.05,383.58 254.05,383.53 274.05,383.52 294.05,383.52 314.05,383.52 334.05,383.52 354.05,383.52 374.05,383.52 380.56,402.43" stroke="#a27879" stroke-width="1"></polyline><polyline points="380.56,402.43 386.12,421.64 391.64,440.87" stroke="#5d8786" stroke-width="20"></polyline></g><g fill="none" stroke-linecap="round"><polyline points="400,400 420,400 440,400 460,400 480,400 500,400 506.51,418.91 512.07,438.12 517.59,457.35 523.1,476.57 528.62,495.8 534.13,515.02 539.64,534.25 545.15,553.47" stroke="#51030d" stroke-width="20"></polyline><polyline points="545.15,553.47 528.77,564.94 511.84,575.59 494.88,586.19 477.92,596.79 460.96,607.38 444,617.98 427.03,628.58 409.58,618.82 392.59,608.26 375.63,597.66" stroke="#faefc2" stroke-width="1"></polyline><polyline points="375.63,597.66 358.67,587.07 341.71,576.47 324.75,565.87 307.79,555.27 290.83,544.67 295.33,525.19 300.79,505.95 306.3,486.72 311.81,467.49 317.32,448.27 322.83,429.04 328.35,409.82 333.86,390.59" stroke="#51030d" stroke-width="20"></polyline><polyline points="333.86,390.59 353.83,389.55 373.83,389.49 393.83,389.49 413.83,389.49 433.83,389.49 453.83,389.49 473.83,389.49 493.83,389.49 500.34,408.4" stroke="#faefc2" stroke-width="1"></polyline><polyline points="500.34,408.4 505.91,427.61 511.42,446.84 516.94,466.06 522.45,485.29 527.96,504.51 533.47,523.74 538.99,542.96" stroke="#51030d" stroke-width="20"></polyline><line x1="538.99" y1="542.96" x2="522.6" y2="554.43" stroke="#faefc2" stroke-width="1"></line><polyline points="522.6,554.43 505.67,565.08 488.71,575.68 471.75,586.28" stroke="#51030d" stroke-width="20"></polyline><polyline points="471.75,586.28 454.79,596.88 437.83,607.47 420.87,618.07 403.41,608.31 386.43,597.75" stroke="#faefc2" stroke-width="1"></polyline><polyline points="386.43,597.75 369.46,587.16 352.5,576.56 335.54,565.96 318.58,555.36 301.62,544.76 284.66,534.16 289.16,514.68 294.62,495.44 300.13,476.21 305.64,456.99 311.15,437.76 316.67,418.53 322.18,399.31" stroke="#51030d" stroke-width="20"></polyline><polyline points="322.18,399.31 327.69,380.08 347.67,379.04 367.67,378.98 387.67,378.98 407.67,378.98 427.67,378.98 447.67,378.98 467.67,378.98 487.67,378.98 494.18,397.89 499.74,417.1" stroke="#faefc2" stroke-width="1"></polyline><polyline points="499.74,417.1 505.26,436.33 510.77,455.55 516.28,474.78 521.79,494 527.31,513.23 532.82,532.45 516.44,543.92 499.5,554.57 482.54,565.17 465.58,575.77 448.62,586.37 431.66,596.96" stroke="#51030d" stroke-width="20"></polyline><polyline points="431.66,596.96 414.7,607.56 397.25,597.8" stroke="#faefc2" stroke-width="1"></polyline><polyline points="397.25,597.8 380.26,587.24 363.3,576.65 346.34,566.05 329.37,555.45 312.41,544.85 295.45,534.25 278.49,523.65 282.99,504.17 288.45,484.93 293.96,465.7 299.48,446.48 304.99,427.25 310.5,408.03 316.01,388.8" stroke="#51030d" stroke-width="20"></polyline><polyline points="316.01,388.8 321.53,369.58 341.5,368.53 361.5,368.48 381.5,368.47 401.5,368.47 421.5,368.47 441.5,368.47 461.5,368.47 481.5,368.47 488.01,387.38 493.57,406.59" stroke="#faefc2" stroke-width="1"></polyline><polyline points="493.57,406.59 499.09,425.82 504.6,445.04 510.11,464.27 515.63,483.49 521.14,502.72 526.65,521.94 510.27,533.41 493.34,544.06 476.38,554.66 459.42,565.26 442.46,575.86 425.49,586.46 408.53,597.05 391.08,587.29 374.09,576.73 357.13,566.14 340.17,555.54 323.21,544.94 306.25,534.34 289.29,523.74 272.32,513.15 276.83,493.66 282.29,474.42 287.8,455.19 293.31,435.97 298.82,416.74 304.33,397.52" stroke="#51030d" stroke-width="20"></polyline><polyline points="304.33,397.52 309.85,378.29 315.36,359.07 335.33,358.02 355.33,357.97 375.33,357.96 395.33,357.96 415.33,357.96 435.33,357.96 455.33,357.96 475.33,357.96 481.84,376.87 487.41,396.08 492.92,415.31" stroke="#faefc2" stroke-width="1"></polyline><polyline points="492.92,415.31 498.43,434.53 503.95,453.76 509.46,472.99 514.97,492.21 520.49,511.44 504.1,522.91 487.17,533.55 470.21,544.15 453.25,554.75 436.29,565.35 419.33,575.95 402.37,586.54 384.91,576.78 367.92,566.22 350.96,555.63 334,545.03 317.04,534.43 300.08,523.83 283.12,513.24 266.16,502.64 270.66,483.15 276.12,463.91 281.63,444.68 287.14,425.46 292.65,406.23 298.17,387.01" stroke="#51030d" stroke-width="20"></polyline><polyline points="298.17,387.01 303.68,367.78 309.19,348.56 329.16,347.51 349.16,347.46 369.16,347.46" stroke="#faefc2" stroke-width="1"></polyline></g><g fill="none" stroke-linecap="round"><line x1="400" y1="400" x2="405.51" y2="380.77" stroke="#5b5362" stroke-width="20"></line><polyline points="405.51,380.77 411.03,361.55 416.54,342.32 422.05,323.1 442.02,322.05 462.02,322 482.02,322 502.02,322 508.53,340.91 514.1,360.12 519.61,379.34 525.13,398.57 530.64,417.79" stroke="#a4ac9d" stroke-width="1"></polyline><polyline points="530.64,417.79 514.26,429.26 497.32,439.91 480.36,450.51 463.4,461.11 445.95,451.34 428.96,440.79 412,430.19 395.04,419.59 399.54,400.11 405,380.86" stroke="#5b5362" stroke-width="20"></polyline><polyline points="405,380.86 410.51,361.64 416.02,342.41 421.53,323.19 441.51,322.14 461.51,322.09 481.51,322.09 501.51,322.09 508.02,341 513.58,360.21 519.1,379.43 524.61,398.66 530.12,417.88" stroke="#a4ac9d" stroke-width="1"></polyline><polyline points="530.12,417.88 513.74,429.35 496.81,440 479.85,450.6 462.89,461.2 445.43,451.43 428.44,440.88 411.48,430.28 394.52,419.68 399.02,400.19 404.48,380.95" stroke="#5b5362" stroke-width="20"></polyline><polyline points="404.48,380.95 409.99,361.73 415.5,342.5 435.48,341.46 455.48,341.4 475.48,341.4 495.48,341.4 515.48,341.4 521.99,360.31 527.55,379.52 533.07,398.75 538.58,417.97" stroke="#a4ac9d" stroke-width="1"></polyline><polyline points="538.58,417.97 522.2,429.44 505.26,440.09 488.3,450.69 471.34,461.29 453.89,451.52 436.9,440.97 419.94,430.37 402.98,419.77 386.02,409.17 390.52,389.69" stroke="#5b5362" stroke-width="20"></polyline><polyline points="390.52,389.69 395.98,370.45 401.49,351.22 407,331.99 426.97,330.95 446.97,330.89 466.97,330.89 486.97,330.89 493.48,349.8 499.05,369.01 504.56,388.24 510.08,407.46" stroke="#a4ac9d" stroke-width="1"></polyline><polyline points="510.08,407.46 515.59,426.69 499.21,438.16 482.27,448.8 465.31,459.4 448.35,470 430.9,460.24 413.91,449.68 396.95,439.09 379.99,428.49 384.49,409 389.95,389.76" stroke="#5b5362" stroke-width="20"></polyline><polyline points="389.95,389.76 395.46,370.53 400.97,351.31 406.48,332.08 426.46,331.04 446.46,330.98 466.46,330.98 486.46,330.98 492.97,349.89 498.53,369.1 504.05,388.33 509.56,407.55" stroke="#a4ac9d" stroke-width="1"></polyline><polyline points="509.56,407.55 515.07,426.78 498.69,438.25 481.76,448.89 464.8,459.49 447.84,470.09 430.38,460.33 413.39,449.77 396.43,439.17 379.47,428.58 383.97,409.09" stroke="#5b5362" stroke-width="20"></polyline></g><g fill="none" stroke-linecap="round"><polyline points="400,400 420,400 440,400 446.51,418.91 452.07,438.12 457.59,457.35 463.1,476.57 446.72,488.04 429.79,498.69 412.83,509.29 395.87,519.88 378.41,510.12 361.42,499.56 344.46,488.97 327.5,478.37 310.54,467.77 315.04,448.29 320.5,429.04 326.01,409.82 331.52,390.59" stroke="#fa2808" stroke-width="20"></polyline><polyline points="331.52,390.59 351.5,389.55 371.5,389.49 391.5,389.49 411.5,389.49 418.01,408.4" stroke="#f05d77" stroke-width="1"></polyline><polyline points="418.01,408.4 423.57,427.61 429.09,446.84 434.6,466.06 440.11,485.29 423.73,496.76 406.8,507.4 389.84,518 372.88,528.6 355.42,518.84 338.43,508.28 321.47,497.68 304.51,487.09 309.01,467.6 314.47,448.36 319.98,429.13 325.49,409.91 331.01,390.68" stroke="#fa2808" stroke-width="20"></polyline><polyline points="331.01,390.68 350.98,389.64 370.98,389.58 390.98,389.58 410.98,389.58 417.49,408.49" stroke="#f05d77" stroke-width="1"></polyline><polyline points="417.49,408.49 423.05,427.7 428.57,446.93 434.08,466.15 439.6,485.38 423.21,496.85 406.28,507.49 389.32,518.09 372.36,528.69 354.91,518.93 337.92,508.37 320.95,497.77 303.99,487.18 308.49,467.69 313.95,448.45 319.46,429.22 324.98,410 344.95,408.95 364.95,408.9 384.95,408.9 404.95,408.89 424.95,408.89 431.46,427.81 437.03,447.02 442.54,466.24 448.05,485.47 431.67,496.94 414.74,507.58 397.78,518.18 380.82,528.78 363.36,519.02 346.37,508.46 329.41,497.86 312.45,487.27 295.49,476.67 299.99,457.18 305.45,437.94 310.96,418.71 316.47,399.49" stroke="#fa2808" stroke-width="20"></polyline><polyline points="316.47,399.49 336.45,398.44 356.45,398.39 376.45,398.39 396.45,398.39 416.45,398.39 422.96,417.3" stroke="#f05d77" stroke-width="1"></polyline><polyline points="422.96,417.3 428.52,436.51 434.04,455.73 439.55,474.96 423.17,486.43 406.23,497.07 389.27,507.67 372.31,518.27 354.86,508.51 337.87,497.95 320.91,487.35 303.95,476.76 308.45,457.27 313.91,438.03 319.42,418.8 324.93,399.58 330.44,380.35" stroke="#fa2808" stroke-width="20"></polyline><polyline points="330.44,380.35 350.42,379.31 370.42,379.25 390.42,379.25" stroke="#f05d77" stroke-width="1"></polyline></g><g fill="none" stroke-linecap="round"><polyline points="293,492 276.04,502.6 259.08,513.2 242.12,523.8" stroke="#fa2808" stroke-width="20"></polyline><polyline points="242.12,523.8 224.66,514.03 207.68,503.48 190.71,492.88 173.75,482.28 156.79,471.68 139.83,461.08 144.33,441.6 149.79,422.36 155.3,403.13 160.81,383.91" stroke="#f05d77" stroke-width="1"></polyline><polyline points="160.81,383.91 166.33,364.68 171.84,345.46 177.35,326.23 197.32,325.19 217.32,325.13" stroke="#fa2808" stroke-width="20"></polyline><polyline points="217.32,325.13 237.32,325.13 257.32,325.13 277.32,325.13 297.32,325.13 317.32,325.13 323.83,344.04 329.4,363.25 334.91,382.47 340.43,401.7" stroke="#f05d77" stroke-width="1"></polyline><polyline points="340.43,401.7 345.94,420.92 351.45,440.15 356.97,459.37 340.58,470.84 323.65,481.49 306.69,492.09 289.73,502.69 272.77,513.29 255.81,523.88 238.35,514.12 221.37,503.56" stroke="#fa2808" stroke-width="20"></polyline><polyline points="221.37,503.56 204.4,492.97 187.44,482.37 170.48,471.77 153.52,461.17 136.56,450.58 141.06,431.09 146.52,411.85 152.03,392.62" stroke="#f05d77" stroke-width="1"></polyline><polyline points="152.03,392.62 157.54,373.4 163.06,354.17 168.57,334.95 188.54,333.9 208.54,333.85 228.54,333.84" stroke="#fa2808" stroke-width="20"></polyline><polyline points="228.54,333.84 248.54,333.84 268.54,333.84 288.54,333.84 308.54,333.84 315.05,352.75 320.62,371.96 326.13,391.19 331.64,410.41" stroke="#f05d77" stroke-width="1"></polyline><polyline points="331.64,410.41 337.16,429.64 342.67,448.86 348.18,468.09 331.8,479.56 314.87,490.2 297.91,500.81 280.95,511.4 263.98,522 247.02,532.6" stroke="#fa2808" stroke-width="20"></polyline><polyline points="247.02,532.6 230.06,543.2 212.61,533.43 195.62,522.88 178.66,512.28 161.7,501.68 144.74,491.09 127.78,480.49 132.28,461 137.74,441.76 143.25,422.53 148.76,403.31 154.27,384.08" stroke="#f05d77" stroke-width="1"></polyline><polyline points="154.27,384.08 159.78,364.86 165.3,345.63 185.27,344.59 205.27,344.53 225.27,344.53" stroke="#fa2808" stroke-width="20"></polyline></g><g fill="none" stroke-linecap="round"><polyline points="293,492 298.51,511.23 304.03,530.45 309.54,549.68 315.05,568.9 320.56,588.13" stroke="#5b5362" stroke-width="20"></polyline><polyline points="320.56,588.13 326.08,607.35 309.69,618.82 292.76,629.47 275.8,640.07 258.84,650.67 241.88,661.26 224.92,671.86 207.46,662.1 190.48,651.54 173.51,640.95 156.55,630.35 139.59,619.75 122.63,609.15 127.13,589.66 132.59,570.42 138.1,551.2 143.61,531.97 149.13,512.75 154.64,493.52 174.61,492.48 194.61,492.42 214.61,492.42 234.61,492.42" stroke="#a4ac9d" stroke-width="1"></polyline><polyline points="234.61,492.42 254.61,492.42 274.61,492.42 294.61,492.42 301.12,511.33 306.69,530.54 312.2,549.77 317.72,568.99 323.23,588.22" stroke="#5b5362" stroke-width="20"></polyline><polyline points="323.23,588.22 328.74,607.44 312.36,618.91 295.43,629.56 278.47,640.16 261.5,650.75 244.54,661.35 227.58,671.95 210.13,662.19 193.14,651.63 176.18,641.04 159.22,630.44 142.26,619.84 125.3,609.24 129.8,589.75 135.26,570.51 140.77,551.29 146.28,532.06 151.79,512.84 157.3,493.61 177.28,492.57 197.28,492.51 217.28,492.51 237.28,492.51" stroke="#a4ac9d" stroke-width="1"></polyline><polyline points="237.28,492.51 257.28,492.51 277.28,492.51 283.79,511.42 289.35,530.63 294.87,549.85 300.38,569.08 305.89,588.3" stroke="#5b5362" stroke-width="20"></polyline><polyline points="305.89,588.3 311.41,607.53 316.92,626.76 300.53,638.23 283.6,648.87 266.64,659.47 249.68,670.07 232.72,680.67 215.27,670.9 198.28,660.35 181.32,649.75 164.36,639.15 147.4,628.56 130.43,617.96 134.93,598.47 140.4,579.23 145.91,560 151.42,540.78 156.93,521.55 162.44,502.33 167.96,483.1 187.93,482.06 207.93,482 227.93,482" stroke="#a4ac9d" stroke-width="1"></polyline></g><g fill="none" stroke-linecap="round"><polyline points="274,484 279.51,464.77 285.03,445.55 305,444.5 325,444.45 345,444.45 365,444.45 385,444.45 405,444.45 425,444.45 431.51,463.36 437.07,482.57 442.59,501.79 448.1,521.02 453.61,540.24 459.13,559.47 442.74,570.94 425.81,581.58 408.85,592.18 391.89,602.78" stroke="#51030d" stroke-width="20"></polyline><polyline points="391.89,602.78 374.93,613.38 357.97,623.98 340.51,614.21 323.53,603.66 306.56,593.06 289.6,582.46 272.64,571.87 255.68,561.27 260.18,541.78" stroke="#faefc2" stroke-width="1"></polyline><polyline points="260.18,541.78 265.64,522.54 271.15,503.31 276.66,484.09 282.18,464.86 287.69,445.64 293.2,426.41 313.18,425.37 333.18,425.31 353.18,425.31 373.18,425.31 393.18,425.31 413.18,425.31 419.69,444.22 425.25,463.43 430.77,482.66 436.28,501.88 441.79,521.11 447.3,540.33 452.82,559.56 436.43,571.03 419.5,581.67 402.54,592.27 385.58,602.87" stroke="#51030d" stroke-width="20"></polyline></g><g fill="none" stroke-linecap="round"><polyline points="274,483 279.51,502.23 285.03,521.45 290.54,540.68 296.05,559.9 301.56,579.13" stroke="#5b5362" stroke-width="20"></polyline><polyline points="301.56,579.13 307.08,598.35 290.69,609.82 273.76,620.47 256.8,631.07 239.84,641.67 222.88,652.26 205.92,662.86 188.46,653.1 171.48,642.54 154.51,631.95 137.55,621.35 120.59,610.75 103.63,600.15 108.13,580.66 113.59,561.42 119.1,542.2 124.61,522.97 130.13,503.75 135.64,484.52 141.15,465.3 161.13,464.25 181.13,464.2 201.13,464.19 221.13,464.19" stroke="#a4ac9d" stroke-width="1"></polyline><polyline points="221.13,464.19 241.13,464.19 261.13,464.19 267.63,483.11 273.2,502.32 278.72,521.54 284.23,540.77 289.74,559.99 295.25,579.22" stroke="#5b5362" stroke-width="20"></polyline></g><g fill="none" stroke-linecap="round"><polyline points="278,491 283.51,471.77 289.03,452.55 309,451.5 329,451.45 349,451.45 369,451.45 389,451.45 395.51,470.36 401.07,489.57 406.59,508.79 412.1,528.02 417.61,547.24 401.23,558.71 384.3,569.36 367.34,579.96 350.38,590.56 333.42,601.16" stroke="#51030d" stroke-width="20"></polyline><polyline points="333.42,601.16 315.96,591.39 298.97,580.84 282.01,570.24 265.05,559.64 248.09,549.04 252.59,529.56" stroke="#faefc2" stroke-width="1"></polyline></g><polyline points="295.25,579.22 300.77,598.44 284.38,609.91 267.45,620.56 250.49,631.16 233.53,641.75 216.57,652.35 199.61,662.95 182.15,653.19 165.17,642.63 148.2,632.04 131.24,621.44 114.28,610.84 97.32,600.24 101.82,580.75 107.28,561.51 112.79,542.29" fill="none" stroke="#a4ac9d" stroke-width="1" stroke-linecap="round"></polyline><polyline points="252.59,529.56 258.05,510.32 263.56,491.09 269.07,471.86 274.59,452.64 280.1,433.41 300.07,432.37" fill="none" stroke="#51030d" stroke-width="20" stroke-linecap="round"></polyline><g fill="none" stroke="none" stroke-width="1" stroke-linecap="butt" font-family="sans-serif" font-weight="normal" font-size="12" text-anchor="start"></g><polyline points="305,509 310.51,489.77 316.03,470.55 336,469.5 356,469.45 376,469.45" fill="none" stroke="#5d8786" stroke-width="20" stroke-linecap="round"></polyline><g fill="none" stroke="none" stroke-width="1" stroke-linecap="butt" font-family="sans-serif" font-weight="normal" font-size="12" text-anchor="start"></g><polyline points="305,509 288.04,498.4 271.08,487.8 254.12,477.2 237.16,466.61 220.2,456.01" fill="none" stroke="#51030d" stroke-width="20" stroke-linecap="round"></polyline><polyline points="225.27,344.53 245.27,344.53 265.27,344.53 285.27,344.53 305.27,344.53 311.78,363.44" fill="none" stroke="#f05d77" stroke-width="1" stroke-linecap="round"></polyline><polyline points="385.58,602.87 368.62,613.47 351.66,624.07 334.2,614.3 317.22,603.75" fill="none" stroke="#faefc2" stroke-width="1" stroke-linecap="round"></polyline><polyline points="227.93,482 247.93,482 267.93,482" fill="none" stroke="#5b5362" stroke-width="20" stroke-linecap="round"></polyline></g></svg>