<svg version="1.1" xmlns="http://www.w3.org/2000/svg" xmlns:xlink="http://www.w3.org/1999/xlink" width="800" height="800" viewBox="0,0,800,800"><g fill="none" fill-rule="nonzero" stroke="none" stroke-width="none" stroke-linecap="none" stroke-linejoin="none" stroke-miterlimit="10" stroke-dasharray="" stroke-dashoffset="0" font-family="none" font-weight="none" font-size="none" text-anchor="none" style="mix-blend-mode: normal"><rect x="0" y="0" width="800" height="800" fill="#cfb698" stroke="none" stroke-width="1" stroke-linecap="butt" stroke-linejoin="miter"></rect><g fill="none" stroke-linecap="round" stroke-linejoin="round"><line x1="400" y1="400" x2="294.24" y2="556.8" stroke="#bfe3d5" stroke-width="20"></line><line x1="388.82" y1="416.58" x2="283.06" y2="573.38" stroke="#bbddd0" stroke-width="19"></line><line x1="377.63" y1="433.16" x2="271.87" y2="589.96" stroke="#b7d6ca" stroke-width="19"></line><line x1="366.45" y1="449.74" x2="260.69" y2="606.54" stroke="#b1ccc2" stroke-width="18"></line><line x1="355.26" y1="466.32" x2="249.5" y2="623.12" stroke="#aac2b9" stroke-width="17"></line><line x1="344.08" y1="482.9" x2="238.32" y2="639.7" stroke="#a3b7af" stroke-width="16"></line><line x1="332.9" y1="499.48" x2="227.14" y2="656.28" stroke="#9caca5" stroke-width="15"></line><line x1="321.71" y1="516.07" x2="215.95" y2="672.86" stroke="#949f9b" stroke-width="14"></line><line x1="310.53" y1="532.65" x2="204.77" y2="689.44" stroke="#8c9390" stroke-width="12"></line><line x1="299.35" y1="549.23" x2="193.58" y2="706.02" stroke="#838585" stroke-width="11"></line><line x1="288.16" y1="565.81" x2="182.4" y2="722.6" stroke="#7b7879" stroke-width="10"></line><line x1="276.98" y1="582.39" x2="171.22" y2="739.18" stroke="#736c6e" stroke-width="9"></line><line x1="265.79" y1="598.97" x2="160.03" y2="755.77" stroke="#6a5e63" stroke-width="7"></line><line x1="254.61" y1="615.55" x2="148.85" y2="772.35" stroke="#625158" stroke-width="6"></line><line x1="243.43" y1="632.13" x2="137.67" y2="788.93" stroke="#5b464e" stroke-width="5"></line><line x1="232.24" y1="648.71" x2="126.48" y2="805.51" stroke="#543b45" stroke-width="4"></line><line x1="221.06" y1="665.29" x2="115.3" y2="822.09" stroke="#4d313c" stroke-width="3"></line><line x1="209.87" y1="681.87" x2="104.11" y2="838.67" stroke="#482835" stroke-width="2"></line><line x1="198.69" y1="698.45" x2="92.93" y2="855.25" stroke="#43212e" stroke-width="1"></line><polyline points="187.51,715.03 81.75,871.83 70.56,888.41 59.38,904.99 48.19,921.57 37.01,938.15 25.83,954.73" stroke="#401c2a" stroke-width="1"></polyline></g><g fill="none" stroke-linecap="round" stroke-linejoin="round"><line x1="400" y1="400" x2="488.79" y2="233.01" stroke="#90faaf" stroke-width="20"></line><line x1="409.39" y1="382.34" x2="498.18" y2="215.35" stroke="#8ff2ac" stroke-width="19"></line><line x1="418.78" y1="364.68" x2="507.57" y2="197.69" stroke="#8ee9a8" stroke-width="19"></line><line x1="428.17" y1="347.02" x2="516.96" y2="180.03" stroke="#8cdea4" stroke-width="18"></line><line x1="437.56" y1="329.36" x2="526.35" y2="162.37" stroke="#8bd29f" stroke-width="17"></line><line x1="446.95" y1="311.71" x2="535.74" y2="144.71" stroke="#89c49a" stroke-width="16"></line><line x1="456.34" y1="294.05" x2="545.13" y2="127.05" stroke="#87b695" stroke-width="15"></line><line x1="465.73" y1="276.39" x2="554.52" y2="109.39" stroke="#85a68f" stroke-width="14"></line><line x1="475.12" y1="258.73" x2="563.91" y2="91.74" stroke="#839789" stroke-width="12"></line><line x1="484.5" y1="241.07" x2="573.3" y2="74.08" stroke="#808782" stroke-width="11"></line><line x1="493.89" y1="223.41" x2="582.69" y2="56.42" stroke="#7e767c" stroke-width="10"></line><line x1="503.28" y1="205.75" x2="592.08" y2="38.76" stroke="#7c6776" stroke-width="9"></line><line x1="512.67" y1="188.09" x2="601.46" y2="21.1" stroke="#7a5770" stroke-width="7"></line><line x1="522.06" y1="170.43" x2="610.85" y2="3.44" stroke="#78476a" stroke-width="6"></line><line x1="531.45" y1="152.77" x2="620.24" y2="-14.22" stroke="#763964" stroke-width="5"></line><line x1="540.84" y1="135.12" x2="629.63" y2="-31.88" stroke="#742b5f" stroke-width="4"></line><line x1="550.23" y1="117.46" x2="639.02" y2="-49.54" stroke="#721f5a" stroke-width="3"></line><line x1="559.62" y1="99.8" x2="648.41" y2="-67.19" stroke="#711456" stroke-width="2"></line><line x1="569.01" y1="82.14" x2="657.8" y2="-84.85" stroke="#700c53" stroke-width="2"></line><polyline points="578.4,64.48 667.19,-102.51 676.58,-120.17 685.97,-137.83 695.36,-155.49" stroke="#6f0550" stroke-width="1"></polyline></g><g fill="none" stroke-linecap="round" stroke-linejoin="round"><line x1="400" y1="400" x2="488.79" y2="233.01" stroke="#0a2a08" stroke-width="20"></line><line x1="409.39" y1="382.34" x2="498.18" y2="215.35" stroke="#122c0a" stroke-width="19"></line><line x1="418.78" y1="364.68" x2="507.57" y2="197.69" stroke="#1b2e0e" stroke-width="19"></line><line x1="428.17" y1="347.02" x2="516.96" y2="180.03" stroke="#263011" stroke-width="18"></line><line x1="437.56" y1="329.36" x2="526.35" y2="162.37" stroke="#323215" stroke-width="17"></line><line x1="446.95" y1="311.71" x2="535.74" y2="144.71" stroke="#403519" stroke-width="16"></line><line x1="456.34" y1="294.05" x2="545.13" y2="127.05" stroke="#4e381e" stroke-width="15"></line><line x1="465.73" y1="276.39" x2="554.52" y2="109.39" stroke="#5e3b23" stroke-width="14"></line><line x1="475.12" y1="258.73" x2="563.91" y2="91.74" stroke="#6d3f28" stroke-width="12"></line><line x1="484.5" y1="241.07" x2="573.3" y2="74.08" stroke="#7d422d" stroke-width="11"></line><line x1="493.89" y1="223.41" x2="582.69" y2="56.42" stroke="#8e4532" stroke-width="10"></line><line x1="503.28" y1="205.75" x2="592.08" y2="38.76" stroke="#9d4937" stroke-width="9"></line><line x1="512.67" y1="188.09" x2="601.46" y2="21.1" stroke="#ad4c3d" stroke-width="7"></line><line x1="522.06" y1="170.43" x2="610.85" y2="3.44" stroke="#bd4f42" stroke-width="6"></line><line x1="531.45" y1="152.77" x2="620.24" y2="-14.22" stroke="#cb5246" stroke-width="5"></line><line x1="540.84" y1="135.12" x2="629.63" y2="-31.88" stroke="#d9554b" stroke-width="4"></line><line x1="550.23" y1="117.46" x2="639.02" y2="-49.54" stroke="#e5584f" stroke-width="3"></line><line x1="559.62" y1="99.8" x2="648.41" y2="-67.19" stroke="#f05a52" stroke-width="2"></line><line x1="569.01" y1="82.14" x2="657.8" y2="-84.85" stroke="#f85c55" stroke-width="2"></line><polyline points="578.4,64.48 667.19,-102.51 676.58,-120.17 685.97,-137.83 695.36,-155.49" stroke="#ff5d57" stroke-width="1"></polyline></g><g fill="none" stroke-linecap="round" stroke-linejoin="round"><line x1="400" y1="400" x2="562.12" y2="497.41" stroke="#22f49b" stroke-width="20"></line><line x1="417.14" y1="410.3" x2="579.26" y2="507.71" stroke="#28ed99" stroke-width="19"></line><line x1="434.29" y1="420.6" x2="596.4" y2="518.01" stroke="#2fe497" stroke-width="19"></line><line x1="451.43" y1="430.9" x2="613.55" y2="528.31" stroke="#37da95" stroke-width="18"></line><line x1="468.57" y1="441.2" x2="630.69" y2="538.61" stroke="#41ce92" stroke-width="17"></line><line x1="485.72" y1="451.5" x2="647.83" y2="548.91" stroke="#4bc18f" stroke-width="16"></line><line x1="502.86" y1="461.8" x2="664.98" y2="559.21" stroke="#57b28b" stroke-width="15"></line><line x1="520" y1="472.11" x2="682.12" y2="569.51" stroke="#62a588" stroke-width="14"></line><line x1="537.15" y1="482.41" x2="699.26" y2="579.82" stroke="#6e9685" stroke-width="12"></line><line x1="554.29" y1="492.71" x2="716.41" y2="590.12" stroke="#7b8581" stroke-width="11"></line><line x1="571.43" y1="503.01" x2="733.55" y2="600.42" stroke="#86787e" stroke-width="10"></line><line x1="588.58" y1="513.31" x2="750.69" y2="610.72" stroke="#94667a" stroke-width="8"></line><line x1="605.72" y1="523.61" x2="767.84" y2="621.02" stroke="#9f5976" stroke-width="7"></line><line x1="622.86" y1="533.91" x2="784.98" y2="631.32" stroke="#aa4a73" stroke-width="6"></line><line x1="640.01" y1="544.21" x2="802.12" y2="641.62" stroke="#b53c70" stroke-width="5"></line><line x1="657.15" y1="554.51" x2="819.27" y2="651.92" stroke="#c0306d" stroke-width="4"></line><line x1="674.29" y1="564.81" x2="836.41" y2="662.22" stroke="#c9246a" stroke-width="3"></line><line x1="691.44" y1="575.11" x2="853.55" y2="672.52" stroke="#d11a67" stroke-width="2"></line><line x1="708.58" y1="585.41" x2="870.7" y2="682.82" stroke="#d91065" stroke-width="1"></line><polyline points="725.72,595.71 887.84,693.12 904.98,703.42 922.13,713.73 939.27,724.03 956.41,734.33" stroke="#dd0b64" stroke-width="1"></polyline></g><g fill="none" stroke-linecap="round" stroke-linejoin="round"><line x1="400" y1="400" x2="488.79" y2="233.01" stroke="#bfe3d5" stroke-width="20"></line><line x1="409.39" y1="382.34" x2="498.18" y2="215.35" stroke="#bbddd0" stroke-width="19"></line><line x1="418.78" y1="364.68" x2="507.57" y2="197.69" stroke="#b6d5c9" stroke-width="19"></line><line x1="428.17" y1="347.02" x2="516.96" y2="180.03" stroke="#b1ccc2" stroke-width="18"></line><line x1="437.56" y1="329.36" x2="526.35" y2="162.37" stroke="#aac2b9" stroke-width="17"></line><line x1="446.95" y1="311.71" x2="535.74" y2="144.71" stroke="#a3b7af" stroke-width="16"></line><line x1="456.34" y1="294.05" x2="545.13" y2="127.05" stroke="#9caca5" stroke-width="15"></line><line x1="465.73" y1="276.39" x2="554.52" y2="109.39" stroke="#949f9b" stroke-width="14"></line><line x1="475.12" y1="258.73" x2="563.91" y2="91.74" stroke="#8c9390" stroke-width="12"></line><line x1="484.5" y1="241.07" x2="573.3" y2="74.08" stroke="#838585" stroke-width="11"></line><line x1="493.89" y1="223.41" x2="582.69" y2="56.42" stroke="#7b7879" stroke-width="10"></line><line x1="503.28" y1="205.75" x2="592.08" y2="38.76" stroke="#736c6e" stroke-width="9"></line><line x1="512.67" y1="188.09" x2="601.46" y2="21.1" stroke="#6a5e63" stroke-width="7"></line><line x1="522.06" y1="170.43" x2="610.85" y2="3.44" stroke="#625258" stroke-width="6"></line><line x1="531.45" y1="152.77" x2="620.24" y2="-14.22" stroke="#5b464e" stroke-width="5"></line><line x1="540.84" y1="135.12" x2="629.63" y2="-31.88" stroke="#543b45" stroke-width="4"></line><line x1="550.23" y1="117.46" x2="639.02" y2="-49.54" stroke="#4d313c" stroke-width="3"></line><line x1="559.62" y1="99.8" x2="648.41" y2="-67.19" stroke="#482835" stroke-width="2"></line><line x1="569.01" y1="82.14" x2="657.8" y2="-84.85" stroke="#43212f" stroke-width="2"></line><polyline points="578.4,64.48 667.19,-102.51 676.58,-120.17 685.97,-137.83 695.36,-155.49" stroke="#401c2a" stroke-width="1"></polyline></g><g fill="none" stroke-linecap="round" stroke-linejoin="round"><line x1="400" y1="400" x2="294.24" y2="243.2" stroke="#0a2a08" stroke-width="20"></line><line x1="388.82" y1="383.42" x2="283.06" y2="226.62" stroke="#122c0a" stroke-width="19"></line><line x1="377.63" y1="366.84" x2="271.87" y2="210.04" stroke="#1b2e0e" stroke-width="19"></line><line x1="366.45" y1="350.26" x2="260.69" y2="193.46" stroke="#263011" stroke-width="18"></line><line x1="355.26" y1="333.68" x2="249.5" y2="176.88" stroke="#323215" stroke-width="17"></line><line x1="344.08" y1="317.1" x2="238.32" y2="160.3" stroke="#403519" stroke-width="16"></line><line x1="332.9" y1="300.52" x2="227.14" y2="143.72" stroke="#4d381e" stroke-width="15"></line><line x1="321.71" y1="283.93" x2="215.95" y2="127.14" stroke="#5e3b23" stroke-width="14"></line><line x1="310.53" y1="267.35" x2="204.77" y2="110.56" stroke="#6d3f28" stroke-width="12"></line><line x1="299.35" y1="250.77" x2="193.58" y2="93.98" stroke="#7d422d" stroke-width="11"></line><line x1="288.16" y1="234.19" x2="182.4" y2="77.4" stroke="#8e4532" stroke-width="10"></line><line x1="276.98" y1="217.61" x2="171.22" y2="60.82" stroke="#9e4938" stroke-width="9"></line><line x1="265.79" y1="201.03" x2="160.03" y2="44.23" stroke="#ad4c3d" stroke-width="7"></line><line x1="254.61" y1="184.45" x2="148.85" y2="27.65" stroke="#bd4f42" stroke-width="6"></line><line x1="243.43" y1="167.87" x2="137.67" y2="11.07" stroke="#cc5247" stroke-width="5"></line><line x1="232.24" y1="151.29" x2="126.48" y2="-5.51" stroke="#d9554b" stroke-width="4"></line><line x1="221.06" y1="134.71" x2="115.3" y2="-22.09" stroke="#e5584f" stroke-width="3"></line><line x1="209.87" y1="118.13" x2="104.11" y2="-38.67" stroke="#f05a52" stroke-width="2"></line><line x1="198.69" y1="101.55" x2="92.93" y2="-55.25" stroke="#f85c55" stroke-width="2"></line><polyline points="187.51,84.97 81.75,-71.83 70.56,-88.41 59.38,-104.99 48.19,-121.57 37.01,-138.15 25.83,-154.73" stroke="#ff5d57" stroke-width="1"></polyline></g><g fill="none" stroke-linecap="round" stroke-linejoin="round"><line x1="400" y1="400" x2="228.59" y2="320.07" stroke="#90faaf" stroke-width="20"></line><line x1="381.87" y1="391.55" x2="210.46" y2="311.62" stroke="#8ff2ac" stroke-width="19"></line><line x1="363.75" y1="383.1" x2="192.34" y2="303.17" stroke="#8eeaa9" stroke-width="19"></line><line x1="345.62" y1="374.64" x2="174.21" y2="294.71" stroke="#8cdea4" stroke-width="18"></line><line x1="327.5" y1="366.19" x2="156.08" y2="286.26" stroke="#8ad19f" stroke-width="17"></line><line x1="309.37" y1="357.74" x2="137.96" y2="277.81" stroke="#89c49a" stroke-width="16"></line><line x1="291.24" y1="349.29" x2="119.83" y2="269.36" stroke="#87b695" stroke-width="15"></line><line x1="273.12" y1="340.83" x2="101.71" y2="260.9" stroke="#85a68f" stroke-width="14"></line><line x1="254.99" y1="332.38" x2="83.58" y2="252.45" stroke="#839688" stroke-width="12"></line><line x1="236.86" y1="323.93" x2="65.45" y2="244" stroke="#808782" stroke-width="11"></line><line x1="218.74" y1="315.48" x2="47.33" y2="235.55" stroke="#7e767c" stroke-width="10"></line><line x1="200.61" y1="307.02" x2="29.2" y2="227.09" stroke="#7c6676" stroke-width="9"></line><line x1="182.49" y1="298.57" x2="11.08" y2="218.64" stroke="#7a5770" stroke-width="7"></line><line x1="164.36" y1="290.12" x2="-7.05" y2="210.19" stroke="#78476a" stroke-width="6"></line><line x1="146.23" y1="281.67" x2="-25.18" y2="201.74" stroke="#763964" stroke-width="5"></line><line x1="128.11" y1="273.21" x2="-43.3" y2="193.28" stroke="#742b5f" stroke-width="4"></line><line x1="109.98" y1="264.76" x2="-61.43" y2="184.83" stroke="#721f5a" stroke-width="3"></line><line x1="91.86" y1="256.31" x2="-79.56" y2="176.38" stroke="#711456" stroke-width="2"></line><line x1="73.73" y1="247.86" x2="-97.68" y2="167.93" stroke="#700b52" stroke-width="1"></line><polyline points="55.6,239.41 -115.81,159.48 -133.93,151.02 -152.06,142.57 -170.19,134.12" stroke="#6f0550" stroke-width="1"></polyline></g><g fill="none" stroke-linecap="round" stroke-linejoin="round"><line x1="400" y1="400" x2="228.59" y2="479.93" stroke="#bfe3d5" stroke-width="20"></line><line x1="381.87" y1="408.45" x2="210.46" y2="488.38" stroke="#bbddd0" stroke-width="19"></line><line x1="363.75" y1="416.9" x2="192.34" y2="496.83" stroke="#b6d5c9" stroke-width="19"></line><line x1="345.62" y1="425.36" x2="174.21" y2="505.29" stroke="#b1cdc2" stroke-width="18"></line><line x1="327.5" y1="433.81" x2="156.08" y2="513.74" stroke="#aac2b9" stroke-width="17"></line><line x1="309.37" y1="442.26" x2="137.96" y2="522.19" stroke="#a3b7af" stroke-width="16"></line><line x1="291.24" y1="450.71" x2="119.83" y2="530.64" stroke="#9caca5" stroke-width="15"></line><line x1="273.12" y1="459.17" x2="101.71" y2="539.1" stroke="#949f9b" stroke-width="14"></line><line x1="254.99" y1="467.62" x2="83.58" y2="547.55" stroke="#8b928f" stroke-width="12"></line><line x1="236.86" y1="476.07" x2="65.45" y2="556" stroke="#838585" stroke-width="11"></line><line x1="218.74" y1="484.52" x2="47.33" y2="564.45" stroke="#7b7879" stroke-width="10"></line><line x1="200.61" y1="492.98" x2="29.2" y2="572.91" stroke="#736c6e" stroke-width="9"></line><line x1="182.49" y1="501.43" x2="11.08" y2="581.36" stroke="#6a5e62" stroke-width="7"></line><line x1="164.36" y1="509.88" x2="-7.05" y2="589.81" stroke="#625158" stroke-width="6"></line><line x1="146.23" y1="518.33" x2="-25.18" y2="598.26" stroke="#5b464e" stroke-width="5"></line><line x1="128.11" y1="526.79" x2="-43.3" y2="606.72" stroke="#533a44" stroke-width="4"></line><line x1="109.98" y1="535.24" x2="-61.43" y2="615.17" stroke="#4d313c" stroke-width="3"></line><line x1="91.86" y1="543.69" x2="-79.56" y2="623.62" stroke="#482835" stroke-width="2"></line><line x1="73.73" y1="552.14" x2="-97.68" y2="632.07" stroke="#43212f" stroke-width="2"></line><polyline points="55.6,560.59 -115.81,640.52 -133.93,648.98 -152.06,657.43 -170.19,665.88" stroke="#401c2a" stroke-width="1"></polyline></g><g fill="none" stroke-linecap="round" stroke-linejoin="round"><line x1="400" y1="400" x2="562.12" y2="302.59" stroke="#22f49b" stroke-width="20"></line><line x1="417.14" y1="389.7" x2="579.26" y2="292.29" stroke="#27ee99" stroke-width="19"></line><line x1="434.29" y1="379.4" x2="596.4" y2="281.99" stroke="#2fe497" stroke-width="19"></line><line x1="451.43" y1="369.1" x2="613.55" y2="271.69" stroke="#37da95" stroke-width="18"></line><line x1="468.57" y1="358.8" x2="630.69" y2="261.39" stroke="#41ce92" stroke-width="17"></line><line x1="485.72" y1="348.5" x2="647.83" y2="251.09" stroke="#4cc08f" stroke-width="16"></line><line x1="502.86" y1="338.2" x2="664.98" y2="240.79" stroke="#56b38c" stroke-width="15"></line><line x1="520" y1="327.89" x2="682.12" y2="230.49" stroke="#62a588" stroke-width="14"></line><line x1="537.15" y1="317.59" x2="699.26" y2="220.18" stroke="#6e9685" stroke-width="12"></line><line x1="554.29" y1="307.29" x2="716.41" y2="209.88" stroke="#7a8681" stroke-width="11"></line></g><line x1="571.43" y1="296.99" x2="733.55" y2="199.58" fill="none" stroke="#86777d" stroke-width="10" stroke-linecap="round" stroke-linejoin="round"></line></g></svg>