<svg version="1.1" xmlns="http://www.w3.org/2000/svg" xmlns:xlink="http://www.w3.org/1999/xlink" width="800" height="800" viewBox="0,0,800,800"><g fill="none" fill-rule="nonzero" stroke="none" stroke-width="none" stroke-linecap="none" stroke-linejoin="none" stroke-miterlimit="10" stroke-dasharray="" stroke-dashoffset="0" font-family="none" font-weight="none" font-size="none" text-anchor="none" style="mix-blend-mode: normal"><rect x="0" y="0" width="800" height="800" fill="#7e5686" stroke="none" stroke-width="1" stroke-linecap="butt" stroke-linejoin="miter" visibility="hidden"/><g fill="none" stroke-linecap="round" stroke-linejoin="round"><polyline points="400,400 610.52,421.3 624.77,454.92 633.11,491.85 635.41,529.71 631.64,567.46 621.9,604.12 606.43,638.75" stroke="#f8a13f" stroke-width="1"/><polyline points="511.68,472.22 585.63,670.48 560.04,698.47 530.31,722.03" stroke="#c0c124" stroke-width="1"/><line x1="523.31" y1="530.56" x2="497.2" y2="740.54" stroke="#b9c521" stroke-width="1"/><polyline points="520.84,550.41 461.56,753.53 424.3,760.67 386.39,761.77 348.78,756.8 312.45,745.9" stroke="#b9c521" stroke-width="2"/><line x1="465.46" y1="630.59" x2="278.32" y2="729.34" stroke="#b8c520" stroke-width="2"/><polyline points="447.77,639.92 247.27,707.55 220.1,681.08 197.5,650.62 180.05,616.94 168.19,580.9 162.24,543.44" stroke="#bdc323" stroke-width="2"/><line x1="332.54" y1="631.23" x2="162.34" y2="505.51" stroke="#c6bd27" stroke-width="2"/><polyline points="316.46,619.34 168.5,468.08 180.55,432.11 198.18,398.52 220.95,368.18 248.26,341.86 279.43,320.24" stroke="#c7bd28" stroke-width="2"/><polyline points="274.27,511.77 313.64,303.86 350.04,293.16" stroke="#c6be27" stroke-width="2"/><line x1="284.8" y1="473.31" x2="387.67" y2="288.4" stroke="#c6be27" stroke-width="3"/><polyline points="294.53,455.83 425.58,289.7 462.8,297.04 498.36,310.23 531.37,328.91 560.98,352.63 586.42,380.77 607.04,412.6 622.32,447.32 631.87,484.04 635.43,521.8 632.93,559.65 624.41,596.61 610.11,631.75" stroke="#f8a13f" stroke-width="3"/><polyline points="509.85,468.47 590.38,664.15 565.74,692.98 536.81,717.52" stroke="#c0c124" stroke-width="3"/><polyline points="523.43,526.39 504.33,737.12 469.15,751.3 432.15,759.67 394.29,762.04" stroke="#b9c521" stroke-width="3"/><polyline points="497.86,600.85 356.54,758.33 319.87,748.65 285.2,733.24" stroke="#b9c521" stroke-width="4"/><polyline points="451.58,638.21 253.45,712.5 225.4,686.95 201.8,657.26 183.23,624.18 170.18,588.56 162.99,551.32" stroke="#bdc323" stroke-width="4"/><line x1="336.12" y1="633.37" x2="161.82" y2="513.4" stroke="#c9bc28" stroke-width="4"/><polyline points="319.65,622.03 166.72,475.79 177.56,439.44 194.07,405.28 215.81,374.2 242.23,346.98 272.65,324.33" stroke="#c7bd28" stroke-width="4"/><polyline points="273.89,515.92 306.31,306.82 342.32,294.91 379.77,288.89" stroke="#c6be27" stroke-width="4"/><polyline points="292.27,459.34 417.7,288.93 455.15,295.02" stroke="#f8a13f" stroke-width="4"/><polyline points="318.4,429.23 491.13,307.01 524.75,324.59 555.13,347.3 581.49,374.57 603.17,405.7 619.6,439.89 630.37,476.27 635.19,513.89 633.95,551.8 626.67,589.03 613.55,624.62 594.92,657.66" stroke="#f8a13f" stroke-width="5"/><polyline points="516.13,483.02 571.25,687.31 543.15,712.79" stroke="#c0c124" stroke-width="5"/><line x1="523.4" y1="522.22" x2="511.35" y2="733.47" stroke="#bfc124" stroke-width="5"/><polyline points="522.26,542.19 476.66,748.81 439.96,758.42 402.21,762.05 364.35,759.6 327.37,751.15 292.22,736.91" stroke="#b9c521" stroke-width="5"/><polyline points="455.32,636.38 259.78,717.23 230.9,692.64 206.32,663.75 186.66,631.31 172.43,596.15 163.99,559.17 161.56,521.31" stroke="#bdc323" stroke-width="6"/><polyline points="322.93,624.61 165.21,483.55 174.83,446.86 190.18,412.17 210.87,380.38 236.37,352.3 266.02,328.64" stroke="#c7bd28" stroke-width="6"/><polyline points="273.66,520.09 299.07,310.02 334.66,296.91 371.9,289.65" stroke="#c6be27" stroke-width="6"/><polyline points="290.13,462.93 409.81,288.42 447.43,293.26 483.8,304.04 517.98,320.48 549.1,342.17" stroke="#f8a13f" stroke-width="6"/><polyline points="367.76,404.01 576.37,368.55 599.07,398.94 616.63,432.56 628.61,468.55 634.68,506 634.71,543.93 628.68,581.38 616.75,617.39 599.23,651.03" stroke="#f8a13f" stroke-width="7"/><polyline points="514.65,479.11 576.57,681.45 549.34,707.86 518.25,729.59" stroke="#c0c124" stroke-width="7"/><polyline points="522.76,538.04 484.09,746.08 447.73,756.9 410.11,761.79 372.2,760.61 334.96,753.4 299.35,740.34" stroke="#b9c521" stroke-width="7"/><polyline points="459.01,634.42 266.27,721.76 236.59,698.14 211.06,670.09" stroke="#bdc323" stroke-width="7"/><polyline points="401.6,650.01 190.32,638.32 174.93,603.66 165.26,566.98 161.57,529.22" stroke="#bdc323" stroke-width="8"/><polyline points="326.29,627.08 163.95,491.36 172.34,454.37 186.52,419.19 206.14,386.72 230.69,357.81 259.54,333.17" stroke="#c7bd28" stroke-width="8"/><polyline points="273.56,524.26 291.94,313.46 327.08,299.17 364.05,290.67 401.9,288.18" stroke="#c6be27" stroke-width="8"/><polyline points="298.87,449.72 439.66,291.76 476.37,301.31 511.08,316.61 542.91,337.25 571.04,362.7 594.74,392.31 613.42,425.33" stroke="#f8a13f" stroke-width="8"/><polyline points="423.17,402.64 626.59,460.9 633.91,498.12 635.2,536.03 630.43,573.66 619.71,610.05 603.32,644.26" stroke="#f8a13f" stroke-width="9"/><polyline points="513.05,475.26 581.69,675.42 555.36,702.72 525.01,725.48" stroke="#c0c124" stroke-width="9"/><polyline points="523.12,533.89 491.41,743.1 455.44,755.13 418.01,761.27 380.08,761.36 342.62,755.39 306.59,743.53" stroke="#b9c521" stroke-width="9"/><line x1="462.62" y1="632.34" x2="272.91" y2="726.06" stroke="#b8c620" stroke-width="9"/><polyline points="444.69,641.2 242.46,703.45 216,676.27 194.22,645.21 177.67,611.08 166.79,574.74" stroke="#bdc323" stroke-width="9"/><line x1="347.26" y1="639.06" x2="161.84" y2="537.13" stroke="#bdc323" stroke-width="10"/><polyline points="329.74,629.43 162.95,499.21 170.1,461.96 183.11,426.33 201.63,393.22 225.2,363.5 253.2,337.92" stroke="#c7bd28" stroke-width="10"/><line x1="273.6" y1="528.43" x2="284.94" y2="317.13" stroke="#c8bd28" stroke-width="10"/><polyline points="274.67,508.46 319.58,301.68 356.24,291.95 393.99,288.19" stroke="#c6be27" stroke-width="10"/><polyline points="296.41,453.08 431.85,290.51 468.86,298.84 504.06,312.97 536.56,332.53 565.52,357.03 590.2,385.83 609.97,418.21" stroke="#f8a13f" stroke-width="10"/></g><g fill="none" stroke-linecap="round" stroke-linejoin="round"><polyline points="364.34,404.06 188.71,522.08 155.57,503.8 125.3,478.77 99.63,448.95 79.33,415.23" stroke="#f8a13f" stroke-width="1"/><polyline points="270.41,429.24 64.97,378.59 56.96,340.05 55.52,300.72 60.71,261.71 72.37,224.12 90.16,189.02" stroke="#bac521" stroke-width="1"/><line x1="179.71" y1="358.4" x2="113.6" y2="157.4" stroke="#bac521" stroke-width="2"/><line x1="173.46" y1="339.4" x2="142" y2="130.16" stroke="#bdc323" stroke-width="2"/><polyline points="170.49,319.62 174.57,108.07 210.39,91.75 248.44,81.68 287.63,78.13 326.87,81.21 365.03,90.82" stroke="#cbbb29" stroke-width="2"/><polyline points="219.58,215.53 401.04,106.7 433.88,128.4 462.61,155.29 486.42,186.63 504.64,221.51 516.75,258.96 522.41,297.91" stroke="#adcc1b" stroke-width="2"/><polyline points="351.68,210.96 521.45,337.25 513.91,375.88 499.99,412.69 480.09,446.65" stroke="#96d910" stroke-width="2"/><polyline points="400.99,272.14 454.78,476.79 424.78,502.26" stroke="#f8a13f" stroke-width="2"/><polyline points="407.84,311.41 390.92,522.33 354.18,536.44 315.6,544.18 276.26,545.35 237.28,539.89 199.77,527.98 164.79,509.94 133.33,486.3 106.28,457.7 84.42,424.98 68.35,389.05" stroke="#f8a13f" stroke-width="3"/><polyline points="256.33,426.12 58.54,350.94 55.26,311.72 58.6,272.51 68.48,234.41 84.6,198.51 106.52,165.82 133.61,137.27" stroke="#bac521" stroke-width="3"/><polyline points="170.98,325.19 165.11,113.68 200.12,95.7 237.65,83.84" stroke="#cbbb29" stroke-width="3"/><polyline points="179.32,266.35 276.64,78.45 315.97,79.68 354.55,87.49" stroke="#cbbb29" stroke-width="4"/><line x1="215.12" y1="218.9" x2="391.27" y2="101.66" stroke="#cbbb2a" stroke-width="4"/><polyline points="231.77,207.82 425.09,121.79 455.05,147.3 480.31,177.48 500.15,211.47 514.01,248.31 521.49,286.95" stroke="#adcc1b" stroke-width="4"/><line x1="346.86" y1="208.12" x2="522.39" y2="326.29" stroke="#afcb1c" stroke-width="4"/><polyline points="363.45,219.29 516.67,365.23 504.5,402.66 486.22,437.51 462.36,468.81" stroke="#96d910" stroke-width="4"/><polyline points="404.99,286 433.58,495.66 400.71,517.3 364.67,533.12 326.49,542.68 287.25,545.69 248.06,542.08" stroke="#f8a13f" stroke-width="4"/><polyline points="372.54,396.42 210.03,531.94 174.24,515.57 141.71,493.43 113.35,466.14 89.96,434.48 72.22,399.35" stroke="#f8a13f" stroke-width="5"/><polyline points="261.74,427.53 60.63,361.74 55.51,322.72 57,283.39 65.07,244.87 79.49,208.25 99.85,174.57 125.57,144.78" stroke="#bac521" stroke-width="5"/><polyline points="171.74,330.73 155.92,119.73 190.05,100.12 226.98,86.51 265.67,79.3 305.02,78.67 343.92,84.66 381.26,97.08" stroke="#cbbb29" stroke-width="5"/><line x1="226.94" y1="210.63" x2="415.99" y2="115.6" stroke="#adcc1b" stroke-width="5"/><polyline points="244.81,201.65 447.12,139.67 473.78,168.63 495.19,201.65 510.77,237.79 520.06,276.04 522.8,315.3" stroke="#adcc1b" stroke-width="6"/><polyline points="359.01,215.9 518.92,354.46 508.53,392.42 491.91,428.1 469.55,460.48" stroke="#96d910" stroke-width="6"/><polyline points="403.64,280.58 442.07,488.66 410.25,511.82 375,529.32 337.31,540.66 298.25,545.52 258.94,543.75 220.47,535.41 183.95,520.75 150.41,500.16 120.8,474.23 95.95,443.71" stroke="#f8a13f" stroke-width="6"/><line x1="287.1" y1="430.7" x2="76.58" y2="409.45" stroke="#f8a13f" stroke-width="7"/><polyline points="267.21,428.69 63.23,372.43 56.27,333.69 55.92,294.34 62.17,255.48 74.85,218.22 93.6,183.62 117.89,152.65" stroke="#bac521" stroke-width="7"/><polyline points="172.75,336.23 147.03,126.2 180.19,105.01 216.44,89.68 254.75,80.65 294.03,78.18 333.17,82.33 371.05,92.98" stroke="#cbbb29" stroke-width="7"/><polyline points="222.24,213.67 406.62,109.84 438.85,132.43 466.83,160.1 489.78,192.07 507.04,227.45 518.12,265.21" stroke="#adcc1b" stroke-width="7"/><line x1="336.85" y1="203.15" x2="522.7" y2="304.3" stroke="#adcc1b" stroke-width="8"/><polyline points="354.42,212.71 520.67,343.6 512.07,382.01 497.15,418.43 476.34,451.83" stroke="#96d910" stroke-width="8"/><polyline points="402.04,275.22 450.21,481.26 419.52,505.9 385.13,525.04 348.02,538.14 309.23,544.82 269.87,544.91 231.06,538.39 193.89,525.46 159.42,506.47 128.62,481.97 102.36,452.65 81.4,419.34" stroke="#f8a13f" stroke-width="8"/><polyline points="272.72,429.59 66.32,382.99 57.56,344.62 55.35,305.32 59.77,266.22" stroke="#bac521" stroke-width="8"/><polyline points="202.83,393.66 70.68,228.4 87.78,192.96 110.59,160.88" stroke="#bac521" stroke-width="9"/><line x1="174.03" y1="341.67" x2="138.45" y2="133.09" stroke="#bbc422" stroke-width="9"/><polyline points="170.66,321.96 170.58,110.36 206.07,93.34 243.91,82.52 283.03,78.2 322.32,80.51 360.66,89.37" stroke="#cbbb29" stroke-width="9"/><line x1="217.69" y1="216.92" x2="396.98" y2="104.53" stroke="#abcd1a" stroke-width="9"/><polyline points="234.64,206.29 430.24,125.58 459.49,151.9 483.92,182.76 502.82,217.28 515.67,254.49 522.09,293.32" stroke="#adcc1b" stroke-width="9"/><line x1="349.68" y1="209.74" x2="521.9" y2="332.67" stroke="#95d910" stroke-width="9"/><polyline points="365.96,221.36 515.12,371.44 501.93,408.52 482.71,442.86" stroke="#96d910" stroke-width="9"/><line x1="400.19" y1="269.95" x2="458" y2="473.49" stroke="#96d910" stroke-width="10"/><polyline points="405.65,289.19 428.5,499.55 395.05,520.28 358.59,535.11 320.17,543.62 280.86,545.55 241.78,540.87 204.04,529.7" stroke="#f8a13f" stroke-width="10"/></g><g fill="none" stroke-linecap="round" stroke-linejoin="round"><polyline points="349.97,391.41 225.41,562.46 176.39,543.94 132.06,511.86 97.17,469.55 74.04,419.81" stroke="#f8a13f" stroke-width="1"/><polyline points="265.27,431.69 64.17,365.86 68.2,311.16 85.85,259.24 116,213.42 156.71,176.66 205.36,151.33" stroke="#bac521" stroke-width="1"/><polyline points="202.07,342.9 258.81,139.06 313.64,140.62 366.3,155.93 413.42,184 451.97,223.02 479.46,270.48" stroke="#cbbb29" stroke-width="2"/><polyline points="287.93,275.78 494.12,323.33 495.01,378.17 482.08,431.47" stroke="#adcc1b" stroke-width="2"/><polyline points="339.98,302.95 456.15,479.8 418.9,520.06 372.72,549.64 320.57,566.66 265.83,570.01 212,559.48 162.56,535.75 120.67,500.34 89.05,455.53 69.71,404.2" stroke="#f8a13f" stroke-width="2"/><polyline points="259.51,430.36 63.91,349.66 72.02,295.42" stroke="#bac521" stroke-width="2"/><polyline points="225.05,410.7 93.51,244.96 127.01,201.53 170.35,167.92 220.76,146.31" stroke="#bac521" stroke-width="3"/><polyline points="203.14,337.09 274.99,138.07 329.54,143.73 380.91,162.94 425.8,194.46 461.31,236.26" stroke="#cbbb29" stroke-width="3"/><line x1="273.81" y1="275.64" x2="485.17" y2="285.64" stroke="#ccba2a" stroke-width="3"/><polyline points="293.78,276.59 495.83,339.44 492.61,394.2" stroke="#adcc1b" stroke-width="3"/><polyline points="329.87,293.08 475.73,446.38 446.25,492.63 406.09,529.99 357.82,556.03 304.56,569.09 249.71,568.34 196.83,553.8 149.3,526.43 110.18,487.99" stroke="#f8a13f" stroke-width="3"/><line x1="293.41" y1="431.96" x2="82" y2="440.94" stroke="#f8a13f" stroke-width="4"/><line x1="273.42" y1="432.81" x2="66.56" y2="388.31" stroke="#bcc322" stroke-width="4"/><polyline points="253.87,428.61 64.86,333.49 77.01,280 102.22,231.29 138.87,190.49 184.61,160.23 236.5,142.45" stroke="#bac521" stroke-width="4"/><polyline points="204.64,331.38 291.19,138.29 345.16,148.03 394.95,171.03 437.35,205.82 469.64,250.16" stroke="#cbbb29" stroke-width="4"/><line x1="279.71" y1="275.39" x2="489.73" y2="301.19" stroke="#aecc1b" stroke-width="4"/><polyline points="299.56,277.83 496.33,355.64 489.03,410" stroke="#adcc1b" stroke-width="4"/><polyline points="334.31,296.98 468.28,460.77 435.42,504.69 392.58,538.93 342.49,561.28 288.4,570.32" stroke="#f8a13f" stroke-width="4"/><polyline points="350.79,389.17 233.77,565.46 182.12,547.01 136.77,516.16 100.64,474.89 76.06,425.86" stroke="#f8a13f" stroke-width="5"/><polyline points="267.56,432.09 64.61,372.22 67.02,317.43 83.14,265 111.92,218.32 151.53,180.38 199.41,153.62" stroke="#bac521" stroke-width="5"/><line x1="201.77" y1="345.21" x2="252.48" y2="139.78" stroke="#cbba2a" stroke-width="5"/><polyline points="206.56,325.79 307.33,139.73 360.42,153.48 408.35,180.14 448.03,218.01 476.9,264.64" stroke="#cbbb29" stroke-width="5"/><polyline points="285.62,275.59 493.11,317.04 495.62,371.83 484.26,425.49" stroke="#adcc1b" stroke-width="5"/><line x1="338.45" y1="301.2" x2="459.77" y2="474.56" stroke="#f8a13f" stroke-width="5"/><polyline points="349.91,317.59 423.72,515.9 378.43,546.83 326.82,565.38 272.19,570.34 218.08,561.4 167.96,539.13 125.05,504.97 92.11,461.11 71.27,410.38" stroke="#f8a13f" stroke-width="6"/><polyline points="261.77,430.93 63.87,356.03 70.37,301.57 90.37,250.5 122.57,206.11 164.91,171.24 214.66,148.14" stroke="#bac521" stroke-width="6"/><polyline points="202.66,339.37 268.62,138.31 323.31,142.37 375.23,160.06 421.03,190.24 457.76,230.97 483.06,279.63" stroke="#cbbb29" stroke-width="6"/><polyline points="291.49,276.22 495.3,333.09 493.7,387.92 478.36,440.57" stroke="#adcc1b" stroke-width="7"/><polyline points="342.25,305.72 450.26,487.68 411.21,526.2 363.74,553.65 310.87,568.28 256.03,569.14" stroke="#f8a13f" stroke-width="7"/></g><g fill="none" stroke-linecap="round" stroke-linejoin="round"><polyline points="344.11,372.77 369.11,582.89 329.07,603.51 283.6,615.11 236.61,616.86 190.29,608.69 146.73,590.97 107.87,564.49" stroke="#ba3c3d" stroke-width="1"/><polyline points="282.02,484.6 75.44,530.43 50.9,490.32 35.33,445.94 29.45,399.28" stroke="#8d7070" stroke-width="1"/><polyline points="204.62,476.88 33.5,352.43 47.31,307.48" stroke="#8d7070" stroke-width="2"/><polyline points="175.11,450.22 70.26,266.43 101.32,231.12 139.11,203.14 181.94,183.72 227.9,173.74 274.93,173.64" stroke="#827c7c" stroke-width="2"/><line x1="176.35" y1="337.93" x2="320.92" y2="183.43" stroke="#926a6a" stroke-width="2"/><polyline points="190.01,323.33 363.84,202.67 401.74,230.5 432.96,265.68 456.08,306.63 470.07,351.52 474.32,398.36 468.62,445.04" stroke="#926b6b" stroke-width="2"/><polyline points="317.72,326.98 453.24,489.48 428.87,529.7 396.58,563.89 357.83,590.53 314.34,608.43" stroke="#ba3c3d" stroke-width="2"/><polyline points="343.36,419.05 268.06,616.79 221.06,615.24 175.44,603.84 133.23,583.1" stroke="#ba3c3d" stroke-width="3"/><polyline points="294.36,479.45 96.32,553.96 66.36,517.71 44.7,475.97 32.29,430.61 29.69,383.65 37.02,337.2" stroke="#8d7070" stroke-width="3"/><line x1="183.68" y1="460.49" x2="53.95" y2="293.33" stroke="#8e6f6f" stroke-width="3"/><polyline points="171.42,444.69 79.73,253.99 113.19,220.96 152.86,195.69 196.95,179.33 243.49,172.6 290.41,175.8" stroke="#827c7c" stroke-width="3"/><polyline points="180.53,332.77 335.6,188.8 377.06,211.01 412.92,241.43 441.58,278.71" stroke="#926b6b" stroke-width="3"/><polyline points="251.21,300.3 461.77,321.18 472.58,366.95 473.53,413.97" stroke="#926b6b" stroke-width="4"/><polyline points="307.49,318.37 464.57,460.14 446.11,503.39 418.97,541.79 384.36,573.63 343.83,597.49 299.19,612.29 252.44,617.38 205.67,612.53 160.95,597.96 120.31,574.31" stroke="#ba3c3d" stroke-width="4"/><polyline points="288.32,482.22 85.54,542.64 58.2,504.38 39.52,461.22 30.32,415.1 31.03,368.08 41.6,322.26" stroke="#8d7070" stroke-width="4"/><line x1="179.24" y1="455.54" x2="61.57" y2="279.68" stroke="#837b7b" stroke-width="4"/><line x1="168.12" y1="438.92" x2="90.05" y2="242.25" stroke="#827c7c" stroke-width="4"/><polyline points="160.74,420.33 125.75,211.65 167.09,189.23 212.22,176 259.12,172.56" stroke="#827c7c" stroke-width="5"/><line x1="172.48" y1="343.45" x2="305.7" y2="179.05" stroke="#837c7c" stroke-width="5"/><polyline points="185.07,327.91 349.87,195.19 389.66,220.25 423.3,253.12 449.28,292.32 466.43,336.1 474,382.52 471.64,429.49" stroke="#926b6b" stroke-width="5"/><polyline points="312.72,322.46 459.46,474.91 438.01,516.76 408.24,553.16 371.48,582.5 329.38,603.45 283.81,615.08 236.82,616.87 190.5,608.75 146.92,591.07" stroke="#ba3c3d" stroke-width="5"/><line x1="300.27" y1="476.21" x2="108.03" y2="564.63" stroke="#ba3c3d" stroke-width="6"/><polyline points="282.1,484.57 75.57,530.6 50.99,490.51 35.38,446.15 29.45,399.5 33.46,352.64 47.22,307.67" stroke="#8d7070" stroke-width="6"/><polyline points="175.16,450.29 70.13,266.6 101.16,231.27 138.93,203.24 181.74,183.78 227.69,173.76 274.72,173.62" stroke="#827c7c" stroke-width="6"/><line x1="176.29" y1="338" x2="320.72" y2="183.36" stroke="#926a6a" stroke-width="6"/><polyline points="189.94,323.38 363.65,202.56 401.59,230.36 432.83,265.5 455.99,306.43 470.03,351.31 474.32,398.15 468.67,444.83" stroke="#926b6b" stroke-width="6"/><polyline points="317.66,326.91 453.33,489.29 428.99,529.53 396.74,563.75 358.01,590.43 314.54,608.37 268.27,616.78 221.27,615.27 175.64,603.91 133.41,583.22" stroke="#ba3c3d" stroke-width="7"/><polyline points="294.44,479.41 96.47,554.11 66.48,517.89 44.77,476.17 32.32,430.82 29.68,383.87 36.96,337.41 53.85,293.52" stroke="#8d7070" stroke-width="7"/><polyline points="171.46,444.77 79.59,254.16 113.03,221.09 152.67,195.79 196.74,179.38 243.28,172.61" stroke="#827c7c" stroke-width="7"/><line x1="169.02" y1="349.23" x2="290.2" y2="175.77" stroke="#827c7c" stroke-width="8"/><polyline points="180.47,332.83 335.41,188.72 376.88,210.89 412.77,241.27 441.47,278.53 461.7,320.98 472.55,366.74 473.54,413.76" stroke="#926b6b" stroke-width="8"/><polyline points="307.41,318.31 464.63,459.93 446.21,503.2 419.11,541.63 384.53,573.51" stroke="#ba3c3d" stroke-width="8"/></g><g fill="none" stroke-linecap="round" stroke-linejoin="round"><polyline points="346.83,351.77 205.93,509.64 165.99,495.97 128.33,473.37 95.72,443.82 69.45,408.5" stroke="#a5aad9" stroke-width="1"/><polyline points="260.54,394.58 50.53,368.76 39.66,326.11 37.27,282.16 43.44,238.58 57.94,197.03 80.21,159.07" stroke="#818284" stroke-width="1"/><polyline points="167.55,329.6 109.42,126.14 144.46,99.5 184,80.16 226.53,68.85 270.45,65.99 314.1,71.7 355.8,85.76" stroke="#8b8d9b" stroke-width="2"/><line x1="206.69" y1="206.07" x2="394" y2="107.64" stroke="#79786f" stroke-width="2"/><polyline points="224.39,196.76 427.23,136.5 454.23,171.25 473.99,210.58 485.75,253 489.07,296.88 483.82,340.58 470.2,382.44 448.73,420.86" stroke="#7a7973" stroke-width="2"/><line x1="357.82" y1="252.2" x2="420.22" y2="454.39" stroke="#7a7a73" stroke-width="2"/><line x1="363.72" y1="271.31" x2="385.75" y2="481.76" stroke="#7b7a74" stroke-width="2"/><polyline points="365.8,291.21 346.63,501.93 304.34,514.14 260.49,517.92" stroke="#a5aad9" stroke-width="2"/><polyline points="349.1,348.04 216.74,513.13 174.74,499.96 136.1,478.89 102.27,450.73 74.54,416.56" stroke="#a5aad9" stroke-width="3"/><polyline points="264.87,394.6 53.96,377.65 41.3,335.49 37.06,291.69 41.39,247.88 54.12,205.75 74.78,166.89" stroke="#818284" stroke-width="3"/><polyline points="169.22,333.59 102.58,132.76 136.46,104.67 175.15,83.68 217.17,70.59 260.93,65.88 304.77,69.75 347.04,82.04 386.12,102.28" stroke="#8b8d9b" stroke-width="3"/><polyline points="220.42,198.48 420.53,129.72 448.98,163.31" stroke="#7a7973" stroke-width="3"/><polyline points="259.15,189.27 470.38,201.77 483.91,243.65 489.08,287.36 485.68,331.24 473.83,373.63 454,412.92" stroke="#7a7973" stroke-width="4"/><line x1="356.06" y1="248.25" x2="426.92" y2="447.63" stroke="#7a7a73" stroke-width="4"/><line x1="362.76" y1="267.09" x2="393.64" y2="476.43" stroke="#7b7a75" stroke-width="4"/><polyline points="365.68,286.88 355.4,498.23 313.67,512.21 270.02,517.83 226.1,514.89 183.59,503.49 144.09,484.07 109.1,457.37 79.96,424.39" stroke="#a5aad9" stroke-width="4"/><polyline points="269.2,394.43 57.75,386.38 43.34,344.8 37.25,301.21 39.73,257.26 50.68,214.63" stroke="#818284" stroke-width="4"/><line x1="181.65" y1="354.48" x2="69.68" y2="174.93" stroke="#818284" stroke-width="5"/><line x1="171.06" y1="337.51" x2="96.02" y2="139.67" stroke="#878993" stroke-width="5"/><polyline points="163.97,318.81 128.69,110.17 166.45,87.57 207.88,72.72 251.41,66.17 295.38,68.19 338.12,78.69 378.02,97.27" stroke="#8b8d9b" stroke-width="5"/><polyline points="216.52,200.36 413.56,123.23 443.4,155.59 466.4,193.12 481.69,234.39 488.69,277.84 487.13,321.83 477.09,364.68 458.93,404.77" stroke="#7a7973" stroke-width="5"/><line x1="354.14" y1="244.37" x2="433.34" y2="440.59" stroke="#7a7972" stroke-width="5"/><line x1="361.63" y1="262.92" x2="401.3" y2="470.76" stroke="#7b7a75" stroke-width="5"/><polyline points="365.38,282.56 364.01,494.15 322.9,509.88" stroke="#a5aad9" stroke-width="5"/><polyline points="361.25,322.16 279.53,517.34 235.53,516.25 192.57,506.65 152.29,488.92 116.21,463.71 85.7,431.99 61.92,394.95" stroke="#a5aad9" stroke-width="6"/><polyline points="253.51,394.17 45.76,354.01 37.84,310.71 38.47,266.7 47.61,223.65 64.92,183.18 89.75,146.84" stroke="#818284" stroke-width="6"/><polyline points="165.19,322.96 121.15,116 157.93,91.82 198.7,75.24 241.91,66.87 285.92,67.03 329.07,75.72 369.72,92.6" stroke="#8b8d9b" stroke-width="6"/><line x1="212.71" y1="202.4" x2="406.32" y2="117.04" stroke="#7a7973" stroke-width="6"/><polyline points="231.01,194.33 437.49,148.12 462.05,184.64 479.07,225.23 487.89,268.35 488.2,312.37 479.96,355.6 463.51,396.42" stroke="#7a7973" stroke-width="7"/><line x1="352.06" y1="240.58" x2="439.45" y2="433.28" stroke="#7a7972" stroke-width="7"/><line x1="360.32" y1="258.79" x2="408.71" y2="464.78" stroke="#7a7973" stroke-width="7"/><polyline points="364.89,278.26 372.45,489.72 332.03,507.17 289.01,516.45 245,517.21 201.68,509.43 160.69,493.41 123.58,469.74 91.76,439.33 66.44,403.33" stroke="#a5aad9" stroke-width="7"/><polyline points="257.83,394.48 48.57,363.11 38.84,320.19 37.61,276.19" stroke="#818284" stroke-width="7"/><polyline points="202.05,374.51 44.93,232.79 60.52,191.63 83.79,154.27" stroke="#818284" stroke-width="8"/><polyline points="166.59,327.06 113.87,122.13 149.6,96.43 189.63,78.14 232.45,67.96 276.43,66.27 319.91,73.13 361.23,88.29" stroke="#8b8d9b" stroke-width="8"/><polyline points="208.98,204.61 398.83,111.16 431.28,140.9 457.36,176.35 476.07,216.19 486.7,258.9 488.86,302.86 482.45,346.41 467.73,387.89 445.25,425.73" stroke="#7a7973" stroke-width="8"/><line x1="358.84" y1="254.72" x2="415.86" y2="458.49" stroke="#7b7a75" stroke-width="8"/><line x1="364.23" y1="273.98" x2="380.68" y2="484.94" stroke="#7a7a73" stroke-width="8"/><polyline points="365.78,293.92 341.04,504.07 298.45,515.15 254.51,517.77 210.9,511.83" stroke="#a5aad9" stroke-width="9"/></g><g fill="none" stroke-linecap="round" stroke-linejoin="round"><polyline points="143.36,376.13 104.74,584.17 46.74,585.87 -11.8,569.97 -63.58,538.1" stroke="#818284" stroke-width="7"/><line x1="100.33" y1="438.88" x2="-104.26" y2="492.91" stroke="#625e3a" stroke-width="7"/><polyline points="80.99,443.99 -130.53,438.07 -140.25,378.04 -132.63,317.72 -108.29,261.99 -69.21,215.41 -18.57,181.75 39.51,163.75 100.31,162.88" stroke="#5a5526" stroke-width="7"/><polyline points="15.19,334.53 158.88,179.2 210.47,211.4 250.86,256.85 276.79,311.85 286.13,371.93 278.14,432.21" stroke="#5a5526" stroke-width="8"/><line x1="120.72" y1="322.99" x2="253.45" y2="487.78" stroke="#8c8d9d" stroke-width="8"/><polyline points="133.26,338.57 214.09,534.12 163.24,567.47 105.05,585.1 44.24,585.6 -14.23,568.9 -65.61,536.39" stroke="#818284" stroke-width="8"/><line x1="99.52" y1="439.22" x2="-105.72" y2="490.69" stroke="#625e3a" stroke-width="8"/><polyline points="80.12,444.08 -131.3,435.53 -140.27,375.38 -131.9,315.16 -106.87,259.74 -67.22,213.65 -16.16,180.62 42.14,163.35" stroke="#5a5526" stroke-width="8"/><polyline points="6.58,351.62 102.94,163.23 161.31,180.29 212.49,213.13 252.31,259.07 277.55,314.39 286.15,374.59 277.4,434.76" stroke="#5a5526" stroke-width="9"/><line x1="121.35" y1="323.59" x2="252.02" y2="490.02" stroke="#8b8d9b" stroke-width="9"/><polyline points="133.71,339.32 212.08,535.87 160.82,568.58 102.42,585.49 41.61,585.22 -16.65,567.8 -67.62,534.65" stroke="#818284" stroke-width="9"/><polyline points="98.71,439.54 -107.16,488.45 -132.05,432.97 -140.27,372.73 -131.15,312.61 -105.43,257.51 -65.2,211.91 -13.74,179.52" stroke="#5a5526" stroke-width="9"/><polyline points="2.92,370.4 44.77,162.98 105.57,163.62 163.72,181.41 214.49,214.88 253.74,261.32 278.28,316.95 286.13,377.25 276.63,437.31" stroke="#5a5526" stroke-width="10"/><line x1="121.98" y1="324.2" x2="250.57" y2="492.25" stroke="#8b8d9c" stroke-width="10"/><polyline points="134.14,340.08 210.06,537.59 158.39,569.66 99.78,585.84 38.98,584.81 -19.05,566.67 -69.61,532.88" stroke="#818284" stroke-width="10"/><line x1="97.89" y1="439.86" x2="-108.57" y2="486.2" stroke="#5b5628" stroke-width="10"/><polyline points="78.38,444.24 -132.77,430.41 -140.24,370.07 -130.37,310.07 -103.96,255.3 -63.17,210.2" stroke="#5a5526" stroke-width="10"/></g><g fill="none" stroke-linecap="round" stroke-linejoin="round"><polyline points="104.62,380.91 219.69,558.49 191.28,595.26 153.6,625.69 110.09,647.18 62.92,658.66" stroke="#818284" stroke-width="8"/><line x1="118.33" y1="475.25" x2="14.39" y2="659.55" stroke="#86878e" stroke-width="8"/><line x1="108.51" y1="492.67" x2="-33.17" y2="649.83" stroke="#5a5627" stroke-width="8"/><polyline points="95.12,507.52 -77.46,629.96 -116.34,600.9" stroke="#5a5526" stroke-width="8"/><polyline points="60.36,526.83 -147.94,564.05 -170.73,521.19 -183.61,474.39 -185.96,425.91" stroke="#5a5526" stroke-width="9"/></g><g fill="none" stroke="#45c3c2" stroke-width="9" stroke-linecap="round" stroke-linejoin="round"><polyline points="85.54,384.7 77.38,596.14 40.53,611.61 -0.17,619.83 -41.78,620.53 -82.83,613.7 -121.97,599.58 -157.92,578.63 -189.5,551.53"/></g><g fill="none" stroke-linecap="round" stroke-linejoin="round"><polyline points="91.08,384.3 -114.61,334.65 -120.95,291.95 -117.87,247.12 -105.87,203.72 -85.44,163.59 -57.43,128.33 -22.95,99.36 16.61,77.86 59.67,64.67 104.5,60.33 149.28,65.01 192.24,78.53 231.64,100.35 265.89,129.58 293.63,165.05 313.75,205.34 325.42,248.84" stroke="#75ec00" stroke-width="9"/><polyline points="142.14,192.98 328.19,293.79 321.94,338.38" stroke="#75ec00" stroke-width="10"/><polyline points="175.06,215.35 306.92,380.84 283.74,419.45 253.33,452.66 216.91,479.14 175.94,497.83 132.06,507.98 87.05,509.17" stroke="#cbbb29" stroke-width="10"/><line x1="184.16" y1="344.01" x2="42.7" y2="501.37" stroke="#bbc422" stroke-width="10"/><polyline points="170.79,358.88 0.79,484.87 -36.98,460.36 -69.11,428.8 -94.3,391.48" stroke="#bac521" stroke-width="10"/><polyline points="97.17,384.65 -111.55,349.88 -120.15,305.67 -119.77,260.64 -110.42,216.59 -92.47,175.29 -66.65,138.4 -33.99,107.39" stroke="#75ec00" stroke-width="10"/></g><g fill="none" stroke-linecap="round" stroke-linejoin="round"><polyline points="78.79,389.44 -132.74,384.04 -138.59,312.69 -117.62,240.71 -72.43,180.68 -8.91,140.53 64.7,125.45 138.89,137.4 204.05,174.82 251.75,232.89" stroke="#5a5526" stroke-width="9"/><polyline points="65.73,278.79 275.82,304.07 273.13,379.17 244.05,448.45" stroke="#5a5526" stroke-width="10"/><line x1="116.62" y1="305.38" x2="192.33" y2="502.97" stroke="#8b8d9b" stroke-width="10"/><line x1="123.77" y1="324.06" x2="124.67" y2="535.65" stroke="#8c8e9d" stroke-width="10"/><polyline points="123.86,344.05 49.82,542.27 -22.54,521.98 -83.03,477.4" stroke="#818284" stroke-width="10"/><polyline points="86.04,387.25 -123.82,414.3 -139.65,340.84 -128.46,266.53 -91.7,200.99 -34.12,152.71 36.81,127.92 111.93,129.83 181.51,158.21 236.55,209.37 269.92,276.7 277.3,351.48 257.75,424.04" stroke="#5a5526" stroke-width="10"/><line x1="112.33" y1="299.29" x2="213.78" y2="484.98" stroke="#5a5527" stroke-width="10"/></g><g fill="none" stroke="#17650d" stroke-width="10" stroke-linecap="round" stroke-linejoin="round"><polyline points="42.42,398.57 -136.63,511.33 -169.63,491.08 -199.27,463.92"/></g><g fill="none" stroke="#17650d" stroke-width="10" stroke-linecap="round" stroke-linejoin="round"><polyline points="36.48,401.1 193.38,543.07 164.11,593.55 119.43,635.09 64.67,662.27 4.43,672.78 -56.31,665.75 -112.55,641.76 -159.66,602.78 -193.77,552.03"/></g><g fill="none" stroke="#45c3c2" stroke-width="10" stroke-linecap="round" stroke-linejoin="round"><line x1="19.28" y1="403.58" x2="-189.82" y2="371.19"/></g><g fill="none" stroke="#17650d" stroke-width="10" stroke-linecap="round" stroke-linejoin="round"><polyline points="16.79,404.22 116.67,217.68 187.54,249.66"/></g><g fill="none" stroke="#5a5526" stroke-width="10" stroke-linecap="round" stroke-linejoin="round"><line x1="14.13" y1="404.52" x2="32" y2="615.36"/></g><line x1="41.47" y1="373.65" x2="243.04" y2="309.26" fill="none" stroke="#17650d" stroke-width="11" stroke-linecap="round" stroke-linejoin="round"/><line x1="15.82" y1="424.45" x2="-1.41" y2="635.34" fill="none" stroke="#5a5526" stroke-width="11" stroke-linecap="round" stroke-linejoin="round"/><line x1="4.46" y1="389.47" x2="-11.31" y2="178.46" fill="none" stroke="#5a5526" stroke-width="11" stroke-linecap="round" stroke-linejoin="round"/><line x1="121.92" y1="316.84" x2="151.1" y2="526.41" fill="none" stroke="#8b8d9b" stroke-width="11" stroke-linecap="round" stroke-linejoin="round"/><line x1="4.33" y1="295.12" x2="4.2" y2="83.52" fill="none" stroke="#75ec00" stroke-width="11" stroke-linecap="round" stroke-linejoin="round"/></g></svg>